<svg width="177" height="43" viewBox="0 0 177 43" fill="none" xmlns="http://www.w3.org/2000/svg">
<path fill-rule="evenodd" clip-rule="evenodd" d="M18.4144 0.138589C17.7558 0.206884 17.0424 0.332562 16.8292 0.417907C16.6159 0.503154 16.3083 0.573009 16.1456 0.573009C15.5883 0.573009 12.2735 1.76978 12.1134 2.02883C12.0784 2.08553 11.9487 2.13181 11.8251 2.13181C11.7015 2.13181 11.4836 2.22368 11.3409 2.33592C11.1982 2.44825 10.7925 2.69337 10.4394 2.88072C9.63159 3.30949 8.40238 4.18144 7.57972 4.90959C7.23143 5.21775 6.74917 5.64506 6.50805 5.859C6.1203 6.20301 5.6546 6.70719 4.64119 7.87989C4.01659 8.60259 2.77686 10.5729 2.26177 11.6614C1.9655 12.2875 1.6176 13.0191 1.4888 13.287C1.36001 13.5549 1.2277 13.9276 1.19477 14.1151C1.16184 14.3026 1.05614 14.6315 0.95998 14.8458C0.733466 15.3502 0.431156 16.6862 0.210488 18.1582C-0.0430121 19.8492 -0.022163 22.6793 0.257057 24.4725C0.491852 25.9801 0.806827 27.3142 0.997975 27.6106C1.06783 27.719 1.15717 28.0039 1.19633 28.2439C1.2356 28.4838 1.34695 28.8117 1.44389 28.9724C1.54083 29.1332 1.74191 29.5716 1.89068 29.9467C2.03945 30.3218 2.28428 30.8388 2.4348 31.0957C2.58532 31.3526 2.70847 31.595 2.70847 31.6344C2.70847 31.6737 2.9496 32.0682 3.24431 32.511C3.53902 32.9538 3.78014 33.3484 3.78014 33.3877C3.78014 33.4272 3.85682 33.5296 3.95064 33.6153C4.04446 33.7012 4.4061 34.1471 4.7544 34.6062C5.10269 35.0655 5.44251 35.4435 5.50944 35.4462C5.57647 35.449 5.63122 35.4978 5.63122 35.5547C5.63122 35.6484 6.4908 36.5285 7.27897 37.2418C7.6602 37.5869 8.93082 38.5566 9.30317 38.7867C11.2141 39.9679 11.6349 40.2194 11.7057 40.222C11.7513 40.2237 12.1458 40.3945 12.5825 40.6015C13.0193 40.8085 13.639 41.0538 13.9598 41.1467C14.2806 41.2396 14.666 41.3791 14.8164 41.4569C15.1056 41.6065 16.1891 41.8625 17.9555 42.1986C18.9404 42.3859 19.3863 42.4031 23.46 42.4098L27.8929 42.4171L27.921 40.1763C27.949 37.9514 27.8681 36.9791 27.605 36.3767C27.5347 36.216 27.4198 35.931 27.3494 35.7435C27.0963 35.0686 26.1157 33.9505 25.3336 33.4448C25.0512 33.2624 24.7641 33.113 24.6955 33.113C24.6268 33.113 24.529 33.0726 24.4781 33.0231C24.2578 32.8092 23.0215 32.5972 21.5602 32.5228C19.4593 32.4157 18.5744 32.289 17.9733 32.0089C17.6957 31.8795 17.293 31.7187 17.0787 31.6517C16.8643 31.5846 16.4698 31.4111 16.2018 31.266C15.9339 31.121 15.6051 30.9443 15.4712 30.8734C15.3372 30.8026 15.1785 30.7185 15.1184 30.6866C14.7414 30.4866 13.7518 29.6529 13.0937 28.9809C12.3915 28.264 11.1845 26.6161 11.1845 26.3745C11.1845 26.3195 11.1035 26.1582 11.0045 26.016C10.6936 25.5693 10.2143 24.0759 10.0909 23.1695C10.0257 22.6907 9.93809 22.2988 9.8964 22.2988C9.79166 22.2988 9.80014 20.0821 9.90507 20.0172C9.95164 19.9885 10.0198 19.6982 10.0568 19.3723C10.1611 18.4502 10.462 17.3955 10.8396 16.6292C11.0293 16.2441 11.1845 15.8941 11.1845 15.8512C11.1845 15.8083 11.3817 15.4851 11.6229 15.1329C11.864 14.7806 12.0613 14.4619 12.0613 14.4245C12.0613 14.3108 13.7398 12.6243 14.1559 12.3199C14.3703 12.1632 14.6114 11.975 14.6918 11.9017C15.068 11.5588 16.2946 10.9311 17.3628 10.5347C18.3834 10.1561 18.7151 10.0811 19.8553 9.97141C22.665 9.70116 24.8037 10.1635 27.1622 11.5512C27.8178 11.9369 29.1072 13.0439 29.7139 13.7419C30.25 14.3586 31.3515 15.9807 31.3515 16.1533C31.3515 16.2037 31.4788 16.5219 31.6345 16.8605C32.2915 18.29 32.5627 20.0316 32.5117 22.4937C32.4934 23.3778 32.4769 27.192 32.4752 30.9696L32.4718 37.8381L32.691 38.2998C32.8117 38.5538 32.911 38.8388 32.9119 38.9331C32.9138 39.1207 33.2841 39.7737 33.7308 40.3766C34.1134 40.893 34.9825 41.5918 35.6382 41.9101C36.7774 42.4632 36.9662 42.4924 39.6938 42.5375L42.2394 42.5797L42.3091 35.63C42.3474 31.8076 42.3606 26.4442 42.3384 23.7115C42.2989 18.8686 42.2914 18.707 42.043 17.3301C41.9028 16.5532 41.7198 15.7817 41.6362 15.6157C41.5526 15.4498 41.4431 15.0971 41.3929 14.8321C41.2839 14.2574 40.5746 12.4957 40.0207 11.4242C39.6693 10.7443 39.0402 9.70856 38.3944 8.74659C37.4169 7.29066 34.5887 4.49905 33.3974 3.81425C33.1563 3.67571 32.9151 3.51301 32.8615 3.4528C32.7693 3.34914 31.5445 2.6278 30.913 2.30533C30.7523 2.2232 30.3425 2.01373 30.0024 1.83983C29.6623 1.66592 29.1362 1.44555 28.8333 1.35017C28.5304 1.25469 27.9707 1.06452 27.5895 0.927539C27.2083 0.790462 26.5961 0.63049 26.2292 0.57184C25.8624 0.51319 25.5141 0.425408 25.4555 0.376696C25.2741 0.226174 22.4346 -0.0122245 20.9864 0.00141501C20.2303 0.00862447 19.0729 0.0702936 18.4144 0.138589ZM21.0244 13.8851C20.8904 13.9048 20.4553 13.969 20.0575 14.0278C19.3901 14.1265 18.9032 14.2729 18.7836 14.4109C18.7568 14.4419 18.5815 14.5275 18.3939 14.6013C17.5669 14.9267 15.7634 16.4479 15.7634 16.8202C15.7634 16.8897 15.6975 16.9719 15.6168 17.0028C15.4172 17.0795 14.6439 18.7011 14.4552 19.4388C14.2544 20.2236 14.2502 22.1563 14.4476 22.914C14.6555 23.7124 15.2629 25.0244 15.5855 25.3724C15.7369 25.5357 15.8609 25.6992 15.8609 25.7359C15.8609 25.8581 16.9833 26.9338 17.4236 27.2334C18.5685 28.0126 20.1959 28.5276 21.5264 28.5319C24.4429 28.5414 27.1883 26.7582 28.2941 24.1362C29.1185 22.1814 29.1309 20.3144 28.3329 18.3293C27.6608 16.6577 26.4594 15.4159 24.6778 14.5511C23.9689 14.2069 23.6027 14.0965 22.7656 13.9741C21.7489 13.8256 21.5123 13.8135 21.0244 13.8851ZM61.4558 16.363C60.757 16.4872 59.8241 16.9282 59.346 17.3601C58.7511 17.8976 58.4942 18.4994 58.4514 19.4555C58.4179 20.2031 58.4385 20.313 58.7182 20.8812C59.1705 21.7999 59.8738 22.312 61.8686 23.1751C62.8552 23.6019 63.4043 24.0588 63.4043 24.4531C63.4043 24.7972 62.9041 25.197 62.3743 25.2764C61.4911 25.4089 59.8618 25.0795 58.5087 24.495C58.3512 24.4269 58.3382 24.5207 58.3382 25.7341V27.0468L59.0933 27.2947C60.5592 27.776 62.7507 27.8755 64.0639 27.5204C65.7746 27.0577 66.6155 25.8877 66.4954 24.1369C66.4562 23.5637 66.3789 23.2644 66.1724 22.8848C65.7526 22.1135 65.4082 21.8963 62.5034 20.5703C61.768 20.2347 61.5303 19.9773 61.5706 19.5603C61.5935 19.3238 61.6858 19.1798 61.912 19.028C62.6759 18.5151 64.0418 18.6596 65.8156 19.4407C65.9095 19.4821 65.9374 19.2028 65.9374 18.2186V16.9431L65.572 16.7895C64.5965 16.3796 62.5527 16.1678 61.4558 16.363ZM97.4098 16.4075C95.2035 16.8067 93.4292 18.52 92.9732 20.6913C92.317 23.8171 93.9518 26.6137 96.9673 27.5239C97.4012 27.6549 97.8656 27.6994 98.7696 27.6967C99.8219 27.6934 100.093 27.6577 100.767 27.4337C103.309 26.5882 104.733 24.4349 104.581 21.6655C104.495 20.0965 104.021 18.9768 103.01 17.9553C101.668 16.6002 99.5621 16.0181 97.4098 16.4075ZM48.3143 21.9309C47.1294 24.8929 46.1599 27.349 46.16 27.3893C46.1601 27.4295 46.8126 27.4623 47.6102 27.4623H49.0605L49.4883 26.3663L49.9162 25.2703L51.8795 25.244L53.8427 25.2176L54.2582 26.3015C54.4867 26.8977 54.7221 27.404 54.7811 27.4267C54.8403 27.4494 55.5069 27.4557 56.2628 27.4408L57.6369 27.4136L55.474 22.0065L53.3112 16.5994L51.8899 16.5726L50.4687 16.5457L48.3143 21.9309ZM67.4962 22.0065V27.4623H68.9575H70.4189V22.0065V16.5507H68.9575H67.4962V22.0065ZM73.6075 21.836C72.4467 24.7429 71.4686 27.1993 71.4337 27.2945C71.3745 27.4562 71.4676 27.4658 72.857 27.4406L74.3436 27.4136L74.7567 26.342L75.1697 25.2703H77.1434H79.1172L79.5302 26.342L79.9432 27.4136L81.4252 27.4406C82.2804 27.4561 82.8932 27.4303 82.8739 27.3794C82.8556 27.331 81.8798 24.8747 80.7055 21.921L78.5703 16.5507H77.1441H75.7178L73.6075 21.836ZM83.3765 17.7198V18.8889H84.8866H86.3966V23.1756V27.4623H87.858H89.3194V23.1756V18.8889H90.8295H92.3396V17.7198V16.5507H87.858H83.3765V17.7198ZM105.589 22.0065V27.4623H107.049H108.509L108.535 25.1845L108.561 22.9067L110.461 25.1789L112.36 27.451L114.107 27.4567L115.853 27.4623L115.654 27.2431C114.412 25.8718 111.156 21.8685 111.21 21.7792C111.282 21.6605 115.02 17.152 115.364 16.7699L115.561 16.5507L113.814 16.5554L112.068 16.5601L110.315 18.6934L108.561 20.8267L108.535 18.6887L108.508 16.5507H107.049H105.589V22.0065ZM116.793 22.0065V27.4623H120.69H124.587V26.2932V25.1241H122.103H119.619V24.1499V23.1756H121.47H123.321V22.0065V20.8374H121.47H119.619V19.8632V18.8889H122.103H124.587V17.7198V16.5507H120.69H116.793V22.0065ZM125.659 22.0039V27.4623H127.07H128.482L128.507 24.3442L128.533 21.2261L130.448 24.3198L132.363 27.4136L133.785 27.4406L135.207 27.4675V22.0092V16.5507H133.795H132.384L132.358 19.6721L132.333 22.7935L130.418 19.6965L128.504 16.5994L127.081 16.5725L125.659 16.5456V22.0039ZM136.571 22.0065V27.4623H137.983H139.396V25.319V23.1756H141.198H143.001V22.0065V20.8374H141.198H139.396V19.8632V18.8889H141.88H144.365V17.7198V16.5507H140.468H136.571V22.0065ZM144.969 20.326C145.001 23.9753 145.01 24.1221 145.227 24.7292C145.5 25.4932 146.017 26.2924 146.494 26.6878C147.54 27.5547 149.401 27.9397 151.164 27.6538C152.974 27.36 154.098 26.4304 154.708 24.7234C154.923 24.1235 154.932 23.9656 154.964 20.326L154.998 16.5507H153.53H152.061V20.0612C152.061 23.7624 152.038 23.9833 151.595 24.4733C150.882 25.2614 149.051 25.2614 148.338 24.4733C148.247 24.3719 148.094 24.1151 148 23.9027C147.849 23.5631 147.824 23.0973 147.793 20.0337L147.758 16.5507H146.346H144.935L144.969 20.326ZM156.153 22.0065V27.4623H157.613H159.073L159.099 24.3617L159.124 21.261L161.027 24.3373L162.93 27.4136L164.364 27.4406L165.798 27.4675V22.0092V16.5507H164.387H162.976L162.95 19.6927L162.924 22.8346L160.985 19.6927L159.046 16.5507H157.6H156.153V22.0065ZM167.065 22.0141V27.4775L169.963 27.4406C172.79 27.4046 172.879 27.3975 173.566 27.151C175.375 26.5024 176.407 25.4188 176.855 23.6987C177.049 22.9558 177.049 21.1547 176.855 20.4118C176.48 18.9734 175.561 17.8291 174.274 17.1985C173.125 16.6354 172.541 16.5543 169.622 16.5524L167.065 16.5507V22.0141ZM172.581 19.2315C173.548 19.7046 174.079 20.6662 174.079 21.9438C174.079 23.332 173.584 24.2756 172.597 24.7691C172.125 25.0053 171.886 25.0553 171.014 25.0997L169.987 25.1521V22.0059V18.8596L171.024 18.9183C171.867 18.966 172.158 19.0246 172.581 19.2315ZM99.989 19.269C100.997 19.7143 101.594 20.6044 101.671 21.7775C101.739 22.8176 101.507 23.4678 100.821 24.1571C100.19 24.7902 99.6217 25.0264 98.7279 25.0272C96.7752 25.0288 95.428 23.2936 95.8402 21.308C96.2217 19.4703 98.2206 18.4878 99.989 19.269ZM52.5482 21.4256L53.1487 23.0782H51.8847C50.9151 23.0782 50.631 23.0499 50.6647 22.9564C51.6156 20.3211 51.8589 19.684 51.8992 19.7243C51.926 19.751 52.2181 20.5167 52.5482 21.4256ZM77.7947 21.3976L78.3781 23.0295L77.1619 23.0569C76.493 23.0719 75.9327 23.0713 75.9169 23.0554C75.8662 23.0047 77.0747 19.7658 77.1444 19.7658C77.1812 19.7658 77.4739 20.5001 77.7947 21.3976ZM95.1024 33.4087C93.7559 33.8227 92.9477 35.3541 93.3483 36.732C93.5833 37.5402 93.9757 38.0116 94.7173 38.3767C95.3229 38.6749 95.3965 38.6879 96.2631 38.65C97.0096 38.6173 97.2726 38.5614 97.7278 38.3388L98.2825 38.0674V36.9541V35.8409H97.6492H97.016V36.6233C97.016 37.5282 96.9988 37.5458 96.1219 37.5458C95.7134 37.5458 95.497 37.4926 95.2938 37.342C94.8204 36.9913 94.5804 36.5453 94.5804 36.0165C94.5804 34.6354 95.9876 33.9297 97.1578 34.7239L97.5142 34.9657L97.8966 34.6483C98.1069 34.4736 98.2798 34.2837 98.2808 34.226C98.2832 34.081 97.9111 33.7549 97.5031 33.5445C97.1085 33.3409 95.6002 33.2556 95.1024 33.4087ZM113.039 33.4573C112.499 33.6565 111.974 34.111 111.654 34.6547C111.415 35.0604 111.386 35.206 111.386 35.987C111.386 36.7681 111.415 36.9137 111.654 37.3194C112.232 38.3025 113.089 38.7176 114.393 38.646C115.336 38.5942 115.795 38.3896 116.371 37.765C116.85 37.2446 117.029 36.7633 117.029 35.987C117.029 35.2108 116.85 34.7295 116.371 34.209C115.765 33.5523 115.343 33.3743 114.309 33.3407C113.71 33.3212 113.308 33.3581 113.039 33.4573ZM102.764 35.987V38.5688H103.397H104.031V37.8868V37.2049H104.549H105.068L105.534 37.8868L106 38.5688H106.725H107.45L106.99 37.9112C106.736 37.5495 106.472 37.1857 106.403 37.1026C106.295 36.9743 106.319 36.9266 106.559 36.7847C107.402 36.2865 107.568 34.8938 106.882 34.0778C106.403 33.509 106.021 33.4099 104.299 33.4074L102.764 33.4053V35.987ZM121.275 34.9021C121.275 36.671 121.377 37.3137 121.738 37.8294C122.115 38.3665 122.632 38.607 123.505 38.6519C124.378 38.6967 124.866 38.5633 125.335 38.1511C125.973 37.5911 126.044 37.2985 126.047 35.232L126.049 33.4053H125.421H124.794L124.764 35.2057L124.733 37.006L124.463 37.276C124.239 37.4997 124.109 37.5458 123.7 37.5458C123.267 37.5458 123.173 37.5076 122.923 37.2277L122.639 36.9095V35.1574V33.4053H121.957H121.275V34.9021ZM130.628 35.987V38.5688H131.261H131.894V37.8999V37.2309L132.844 37.1845C133.554 37.1497 133.896 37.0856 134.199 36.9306C134.926 36.558 135.274 35.8847 135.174 35.0413C135.094 34.3666 134.806 33.9529 134.21 33.6558C133.734 33.4185 133.626 33.4053 132.167 33.4053H130.628V35.987ZM105.196 34.4719C105.7 34.5691 105.979 34.855 105.979 35.2736C105.979 35.897 105.6 36.1332 104.601 36.1332H104.031V35.2564V34.3795L104.396 34.3838C104.597 34.3862 104.957 34.4258 105.196 34.4719ZM115.022 34.6428C115.492 34.9905 115.722 35.432 115.722 35.987C115.722 37.2016 114.46 37.9689 113.432 37.3791C112.994 37.1273 112.604 36.4725 112.604 35.987C112.604 35.5016 112.994 34.8468 113.432 34.595C113.906 34.3233 114.62 34.3447 115.022 34.6428ZM133.544 34.6522C134.04 35.0228 133.958 35.762 133.394 35.9976C133.216 36.0721 132.805 36.1332 132.482 36.1332H131.894V35.2422V34.3513L132.596 34.4101C133.057 34.4488 133.383 34.5319 133.544 34.6522Z" fill="#31393A"/>
<path fill-rule="evenodd" clip-rule="evenodd" d="M18.3953 0.145156C17.7264 0.21803 17.0131 0.344193 16.8102 0.425348C16.6073 0.506503 16.3135 0.572949 16.1574 0.572949C15.6117 0.572949 12.2732 1.77001 12.1178 2.02137C12.0855 2.07378 11.9169 2.14695 11.7434 2.18378C11.5698 2.2207 11.36 2.31062 11.2768 2.38359C11.1938 2.45657 10.8212 2.67714 10.4487 2.87355C10.0764 3.07005 9.61819 3.34674 9.43064 3.48839C9.2431 3.62995 8.89831 3.87439 8.66449 4.03144C8.43067 4.18849 8.2177 4.37331 8.1913 4.44219C8.1649 4.51107 8.09767 4.56738 8.04204 4.56738C7.94452 4.56738 7.49296 4.95698 6.45918 5.93299C5.67471 6.67351 4.48086 8.02149 4.22512 8.45532C4.16784 8.55246 3.95867 8.84629 3.76031 9.10836C3.56185 9.37034 3.34489 9.69438 3.27805 9.82834C3.21132 9.9623 3.0644 10.2034 2.95168 10.3642C2.75352 10.6467 2.15737 11.8328 1.55587 13.1408C1.3958 13.4891 1.23291 13.9494 1.19394 14.1638C1.15506 14.3781 1.04439 14.7103 0.948132 14.9019C0.691612 15.4125 0.1964 18.1351 0.0604918 19.7818C-0.106105 21.8002 0.0678961 23.8211 0.626142 26.3497C0.757179 26.9435 0.923094 27.5134 0.994799 27.6162C1.06641 27.7191 1.1573 27.9952 1.19666 28.2299C1.23612 28.4645 1.34796 28.7933 1.44529 28.9606C1.54262 29.1278 1.74341 29.5715 1.8916 29.9466C2.03978 30.3217 2.28412 30.8387 2.43464 31.0957C2.58517 31.3526 2.70831 31.5914 2.70831 31.6262C2.70831 31.6891 2.96542 32.0962 3.5034 32.8853C3.65558 33.1084 3.77999 33.3364 3.77999 33.392C3.77999 33.4475 3.83503 33.528 3.90235 33.5708C3.96967 33.6137 4.20486 33.8912 4.42504 34.1874C5.67218 35.8653 7.09702 37.1895 9.52807 38.9302C9.84714 39.1587 11.4828 40.1276 11.5494 40.1276C11.5778 40.1276 11.9566 40.2968 12.3913 40.5037C12.8259 40.7105 13.5542 41.0014 14.0096 41.1499C14.4651 41.2985 14.8876 41.4594 14.9485 41.5073C15.0094 41.5552 15.3601 41.6561 15.7279 41.7313C16.0957 41.8065 16.813 41.9557 17.3221 42.0631C18.8541 42.386 20.1964 42.4658 24.0972 42.4658H27.8183L27.8873 40.298C27.9252 39.1059 27.9278 37.9111 27.893 37.6432C27.8163 37.0532 27.6573 36.412 27.5549 36.2793C27.5135 36.2257 27.4249 36.0118 27.3578 35.8039C27.2909 35.5961 27.1793 35.355 27.1098 35.2681C27.0404 35.1813 26.791 34.869 26.5556 34.5743C26.1246 34.0347 25.4 33.4251 24.9311 33.2076C24.7917 33.143 24.6053 33.0538 24.5167 33.0093C24.0349 32.767 22.9621 32.5958 21.4626 32.522C19.1355 32.4073 18.4229 32.2835 17.5615 31.8443C17.3535 31.7383 17.1221 31.6516 17.047 31.6516C16.972 31.6516 16.6415 31.5058 16.3126 31.3276C15.7859 31.0423 15.5296 30.9047 15.1182 30.6866C14.7335 30.4824 13.7485 29.6502 13.0841 28.9677C12.3313 28.1944 11.1843 26.6411 11.1843 26.3947C11.1843 26.3286 11.1033 26.1582 11.0044 26.0159C10.6987 25.5767 10.2229 24.1041 10.0961 23.2043C10.0295 22.7331 9.93755 22.3213 9.89156 22.2892C9.74591 22.1876 9.88055 20.0508 10.1026 18.9429C10.3059 17.9279 10.7411 16.6548 11.044 16.1887C11.1212 16.0701 11.1843 15.9228 11.1843 15.8614C11.1843 15.7999 11.3816 15.4675 11.6227 15.1225C11.8638 14.7776 12.0611 14.4618 12.0611 14.4207C12.0611 14.3123 13.9178 12.4369 14.1962 12.264C14.3256 12.1836 14.5045 12.0485 14.594 11.9636C14.6833 11.8788 14.9501 11.695 15.1868 11.5551C16.8615 10.5656 18.1026 10.1452 19.8551 9.9736C22.6379 9.7012 24.6323 10.1226 27.1183 11.5081C27.9291 11.9602 29.5451 13.4175 30.1736 14.2636C30.6281 14.8754 31.3212 16.0094 31.406 16.2798C31.4442 16.402 31.5747 16.7212 31.6958 16.9891C32.0639 17.8034 32.2975 18.7812 32.4172 20.0093C32.4799 20.6523 32.554 21.3318 32.5818 21.5194C32.6511 21.9864 32.6412 22.3861 32.5335 23.4679C32.4828 23.9769 32.4372 27.3428 32.4321 30.9477C32.4232 37.3644 32.4273 37.5136 32.6265 38.0597C32.7385 38.3665 32.8652 38.7591 32.9081 38.9323C33.1286 39.8215 34.4764 41.2955 35.576 41.8499C36.7871 42.4606 37.4197 42.5632 39.973 42.5632H42.2311L42.2955 37.3753C42.3311 34.5219 42.3601 29.4022 42.3602 25.998C42.3603 19.8067 42.3016 18.46 41.9715 17.0865C41.92 16.8722 41.8768 16.5739 41.8755 16.4235C41.8743 16.2732 41.7844 15.9552 41.6757 15.7169C41.5672 15.4785 41.4385 15.0734 41.3898 14.8167C41.2368 14.0102 40.1871 11.6014 39.4918 10.4616C38.9998 9.65502 38.1728 8.44996 37.7535 7.92855C36.9863 6.97446 34.6746 4.6648 34.4868 4.6648C34.4472 4.6648 34.3462 4.58482 34.2625 4.487C33.9942 4.17359 31.9236 2.84851 30.7667 2.24993C29.4219 1.55392 27.1173 0.710415 26.1543 0.56155C25.7708 0.502315 25.4337 0.41658 25.4051 0.37118C25.3161 0.229816 22.4306 -0.0121873 20.9862 0.000478015C20.2301 0.00710292 19.0642 0.0721845 18.3953 0.145156ZM21.0242 13.8841C19.5207 14.0995 18.92 14.2397 18.7835 14.4073C18.7567 14.4401 18.5813 14.5265 18.3938 14.5991C17.5691 14.9185 15.9468 16.3028 15.7357 16.8673C15.7006 16.961 15.6288 17.0378 15.5761 17.0378C15.4287 17.0378 14.6283 18.7621 14.4454 19.4734C14.3171 19.9728 14.2926 20.395 14.33 21.4706C14.3791 22.887 14.4824 23.309 15.0745 24.5105C15.1853 24.7356 15.2762 24.9576 15.2762 25.0038C15.2762 25.0498 15.4077 25.2136 15.5684 25.3676C15.7292 25.5217 15.8607 25.6825 15.8607 25.725C15.8607 25.7676 16.1201 26.0635 16.4372 26.3824C18.1431 28.0991 20.4951 28.8226 22.9387 28.3827C25.3167 27.9545 27.3704 26.326 28.2939 24.1362C29.1183 22.1814 29.1308 20.3143 28.3328 18.3293C27.6606 16.6576 26.4593 15.4159 24.6777 14.551C23.9687 14.2068 23.6026 14.0964 22.7654 13.9741C21.7509 13.8259 21.5162 13.8137 21.0242 13.8841ZM61.4557 16.3607C60.6833 16.4947 59.5844 17.0626 59.1777 17.5379C58.6666 18.135 58.4968 18.5626 58.4525 19.3653C58.3589 21.0608 59.1136 21.9466 61.5828 23.0395C62.8173 23.5857 63.4042 24.0397 63.4042 24.4481C63.4042 24.7966 62.9069 25.1965 62.3742 25.2764C61.4909 25.4089 59.8617 25.0795 58.5085 24.4949C58.351 24.4268 58.338 24.5204 58.338 25.7289V27.0365L58.947 27.2442C59.9807 27.5968 60.6745 27.6992 62.0402 27.7012C64.3448 27.7043 65.586 27.174 66.2 25.9237C66.4441 25.4267 66.4729 25.2643 66.4724 24.3934C66.4717 23.4992 66.4482 23.3767 66.1861 22.9026C65.7482 22.11 65.4173 21.9005 62.5033 20.5702C61.7678 20.2346 61.5302 19.9772 61.5704 19.5602C61.6332 18.9117 62.5908 18.5914 63.861 18.7944C64.4121 18.8824 64.9569 19.0626 65.8154 19.4407C65.9093 19.482 65.9372 19.2028 65.9372 18.2186V16.943L65.5719 16.7895C64.5995 16.381 62.5615 16.1686 61.4557 16.3607ZM97.4096 16.4075C95.2033 16.8066 93.429 18.5199 92.9731 20.6912C92.3168 23.817 93.9516 26.6136 96.9671 27.5239C97.401 27.6548 97.8655 27.6993 98.7695 27.6966C99.8218 27.6934 100.093 27.6576 100.767 27.4336C103.308 26.5882 104.732 24.4348 104.581 21.6655C104.495 20.0965 104.021 18.9767 103.01 17.9552C101.668 16.6002 99.5619 16.018 97.4096 16.4075ZM48.3142 21.9309C47.1292 24.8928 46.1597 27.349 46.1598 27.3892C46.1599 27.4295 46.8125 27.4623 47.6101 27.4623H49.0604L49.4881 26.3663L49.916 25.2702L51.8793 25.2439L53.8426 25.2175L54.2581 26.3015C54.4865 26.8976 54.7219 27.4039 54.781 27.4266C54.8401 27.4493 55.5068 27.4557 56.2626 27.4408L57.6368 27.4136L55.4738 22.0065L53.311 16.5994L51.8898 16.5725L50.4685 16.5456L48.3142 21.9309ZM67.496 22.0065V27.4623H68.9574H70.4188V22.0065V16.5507H68.9574H67.496V22.0065ZM73.6073 21.836C72.4466 24.7429 71.4684 27.1992 71.4335 27.2944C71.3743 27.4561 71.4673 27.4657 72.8547 27.4406L74.3391 27.4136L74.7521 26.3419L75.1651 25.2702H77.1411H79.1171L79.5301 26.3419L79.943 27.4136L81.4251 27.4406C82.2677 27.4559 82.8928 27.4299 82.8738 27.3803C82.8555 27.3325 81.878 24.8762 80.7016 21.922L78.5627 16.5507H77.1402H75.7176L73.6073 21.836ZM83.3763 17.7198V18.8889H84.8864H86.3965V23.1756V27.4623H87.8579H89.3192V23.1756V18.8889H90.8293H92.3394V17.7198V16.5507H87.8579H83.3763V17.7198ZM105.589 22.0065V27.4623H107.049H108.508L108.535 25.1845L108.561 22.9067L110.46 25.1788L112.36 27.451L114.107 27.4566L115.853 27.4623L115.654 27.2431C114.412 25.8717 111.156 21.8684 111.21 21.7792C111.282 21.6604 115.02 17.152 115.364 16.7699L115.561 16.5507L113.814 16.5553L112.068 16.56L110.314 18.6933L108.561 20.8267L108.534 18.6887L108.508 16.5507H107.049H105.589V22.0065ZM116.793 22.0065V27.4623H120.69H124.587V26.2932V25.1241H122.103H119.618V24.1498V23.1756H121.47H123.321V22.0065V20.8374H121.47H119.618V19.8631V18.8889H122.103H124.587V17.7198V16.5507H120.69H116.793V22.0065ZM125.659 22.0038V27.4623H127.07H128.481L128.507 24.3441L128.533 21.226L130.448 24.3197L132.363 27.4136L133.785 27.4406L135.206 27.4674V22.0091V16.5507H133.795H132.384L132.358 19.6721L132.332 22.7935L130.418 19.6964L128.504 16.5994L127.081 16.5724L125.659 16.5455V22.0038ZM136.57 22.0065V27.4623H137.983H139.396V25.3189V23.1756H141.198H143V22.0065V20.8374H141.198H139.396V19.8631V18.8889H141.88H144.364V17.7198V16.5507H140.467H136.57V22.0065ZM144.95 19.9362C144.95 21.7983 144.996 23.6067 145.051 23.955C145.275 25.3707 146.185 26.6699 147.331 27.2123C148.684 27.8523 150.814 27.917 152.284 27.3628C153.373 26.9522 154.271 25.9782 154.707 24.7344C154.92 24.1254 154.93 23.9566 154.963 20.3259L154.998 16.5507H153.529H152.061V20.0611C152.061 23.7624 152.038 23.9832 151.595 24.4733C150.882 25.2614 149.051 25.2614 148.338 24.4733C148.247 24.3719 148.094 24.1151 147.999 23.9027C147.846 23.5616 147.822 23.1106 147.793 20.0336L147.759 16.5507H146.354H144.949L144.95 19.9362ZM156.153 22.0065V27.4623H157.613H159.073L159.099 24.3586L159.124 21.2548L161.027 24.3343L162.929 27.4136L164.364 27.4406L165.798 27.4674V22.0091V16.5507H164.385H162.973V19.7356V22.9205L161.009 19.7356L159.045 16.5507H157.599H156.153V22.0065ZM167.064 22.0065V27.4623H169.651C172.574 27.4623 173.154 27.3822 174.354 26.8125C175.637 26.2036 176.512 25.0952 176.854 23.6457C177.044 22.8405 177.044 21.1382 176.855 20.4117C176.476 18.958 175.555 17.8183 174.256 17.1946C173.079 16.6301 172.533 16.5543 169.622 16.5523L167.064 16.5507V22.0065ZM172.517 19.1891C173.127 19.4515 173.617 20.0012 173.893 20.7323C174.061 21.1796 174.09 21.431 174.057 22.1526C173.965 24.1486 173.087 24.9939 170.995 25.1006L169.987 25.152V22.0058V18.8595L171.003 18.917C171.734 18.9584 172.158 19.0346 172.517 19.1891ZM99.9888 19.2689C100.997 19.7143 101.594 20.6043 101.671 21.7774C101.739 22.8175 101.507 23.4678 100.82 24.157C100.19 24.7901 99.6216 25.0264 98.7278 25.0271C96.7751 25.0287 95.4278 23.2936 95.84 21.3079C96.2215 19.4702 98.2205 18.4878 99.9888 19.2689ZM52.5481 21.4255L53.1485 23.0782H51.8845C50.9149 23.0782 50.6308 23.0498 50.6646 22.9564C51.6154 20.321 51.8587 19.684 51.899 19.7242C51.9258 19.751 52.2179 20.5167 52.5481 21.4255ZM77.7974 21.3976L78.3846 23.0294L77.1651 23.0568C76.4944 23.0718 75.9317 23.0704 75.9148 23.0534C75.863 23.0016 77.0722 19.7657 77.1434 19.7657C77.1802 19.7657 77.4745 20.5001 77.7974 21.3976ZM95.1022 33.4086C93.7558 33.8227 92.9475 35.354 93.3482 36.732C93.5831 37.5401 93.9756 38.0116 94.7172 38.3766C95.3228 38.6748 95.3963 38.6878 96.2629 38.6499C97.0095 38.6173 97.2724 38.5613 97.7276 38.3387L98.2823 38.0673V36.954V35.8408H97.6491H97.0158V36.6233C97.0158 37.5282 96.9987 37.5458 96.1217 37.5458C95.7132 37.5458 95.4969 37.4925 95.2936 37.342C94.8202 36.9912 94.5802 36.5452 94.5802 36.0164C94.5802 34.6353 95.9874 33.9297 97.1577 34.7239L97.5141 34.9657L97.8964 34.6483C98.1068 34.4736 98.2796 34.2836 98.2806 34.2259C98.283 34.081 97.911 33.7549 97.5029 33.5444C97.1084 33.3408 95.6 33.2556 95.1022 33.4086ZM113.039 33.4572C112.499 33.6565 111.973 34.111 111.654 34.6546C111.415 35.0604 111.386 35.2059 111.386 35.987C111.386 36.768 111.415 36.9136 111.654 37.3194C112.232 38.3025 113.089 38.7175 114.393 38.6459C115.336 38.5942 115.795 38.3896 116.371 37.765C116.85 37.2445 117.028 36.7633 117.028 35.987C117.028 35.2107 116.85 34.7294 116.371 34.209C115.765 33.5522 115.343 33.3742 114.309 33.3406C113.71 33.3211 113.307 33.3581 113.039 33.4572ZM102.764 35.987V38.5687H103.397H104.03V37.8868V37.2048H104.549H105.068L105.534 37.8868L106 38.5687H106.725H107.45L106.99 37.9111C106.736 37.5495 106.472 37.1856 106.403 37.1025C106.295 36.9742 106.319 36.9266 106.559 36.7846C107.402 36.2865 107.568 34.8938 106.882 34.0777C106.403 33.509 106.021 33.4098 104.298 33.4074L102.764 33.4052V35.987ZM121.275 34.9021C121.275 36.6709 121.376 37.3136 121.738 37.8294C122.115 38.3664 122.631 38.6069 123.505 38.6519C124.377 38.6967 124.865 38.5632 125.335 38.1511C125.973 37.5911 126.044 37.2984 126.046 35.2319L126.049 33.4052H125.421H124.794L124.764 35.2056L124.733 37.006L124.463 37.2759C124.239 37.4996 124.109 37.5458 123.7 37.5458C123.267 37.5458 123.173 37.5075 122.923 37.2276L122.639 36.9094V35.1573V33.4052H121.957H121.275V34.9021ZM130.627 35.987V38.5687H131.261H131.894V37.8998V37.2308L132.844 37.1844C133.554 37.1497 133.896 37.0855 134.199 36.9305C134.926 36.5579 135.273 35.8847 135.174 35.0413C135.094 34.3665 134.806 33.9528 134.209 33.6557C133.733 33.4185 133.625 33.4052 132.167 33.4052H130.627V35.987ZM105.196 34.4718C105.7 34.5691 105.979 34.8549 105.979 35.2735C105.979 35.897 105.6 36.1331 104.6 36.1331H104.03V35.2563V34.3795L104.396 34.3838C104.597 34.3861 104.957 34.4257 105.196 34.4718ZM115.022 34.6427C115.492 34.9904 115.721 35.432 115.721 35.987C115.721 37.2016 114.46 37.9688 113.432 37.379C112.993 37.1272 112.604 36.4725 112.604 35.987C112.604 35.5015 112.993 34.8467 113.432 34.595C113.905 34.3233 114.62 34.3447 115.022 34.6427ZM133.544 34.6522C134.04 35.0228 133.958 35.7619 133.394 35.9975C133.215 36.072 132.805 36.1331 132.482 36.1331H131.894V35.2422V34.3512L132.596 34.4101C133.057 34.4487 133.382 34.5318 133.544 34.6522Z" fill="#31393A"/>
<path fill-rule="evenodd" clip-rule="evenodd" d="M18.3952 0.145071C17.7263 0.217945 17.0131 0.344108 16.8101 0.425263C16.6072 0.506418 16.3135 0.572863 16.1573 0.572863C15.6116 0.572863 12.2731 1.76993 12.1178 2.02128C12.0854 2.0737 11.9169 2.14686 11.7434 2.18369C11.5697 2.22061 11.3599 2.31054 11.2768 2.38351C11.1938 2.45648 10.8211 2.67763 10.4487 2.87482C10.0763 3.07211 9.58967 3.36916 9.36735 3.53498C9.14502 3.70089 8.84154 3.92429 8.69287 4.03145C8.0144 4.52043 6.52516 5.82038 6.02489 6.36021C5.78152 6.62287 5.46177 6.94797 5.31436 7.08261C5.16696 7.21725 5.04645 7.37703 5.04645 7.43763C5.04645 7.49833 4.87108 7.71919 4.65675 7.92846C4.44241 8.13773 4.26704 8.36044 4.26704 8.42347C4.26704 8.48641 4.19856 8.59465 4.11487 8.66412C4.03118 8.73358 3.80642 9.03492 3.61547 9.33372C3.42451 9.63252 3.15192 10.0523 3.00987 10.2667C2.63644 10.8299 1.49783 13.178 1.43801 13.5081C1.4309 13.5472 1.39076 13.623 1.34868 13.6765C1.30669 13.7301 1.24131 13.9493 1.20351 14.1637C1.16571 14.378 1.05143 14.7287 0.949623 14.9431C0.669915 15.5317 0.199936 18.0953 0.0647103 19.7693C-0.101497 21.8273 0.0689967 23.8264 0.626074 26.3496C0.75711 26.9434 0.923025 27.5133 0.99473 27.6161C1.06634 27.719 1.15724 27.9951 1.1966 28.2298C1.23605 28.4644 1.3479 28.7932 1.44522 28.9605C1.54255 29.1277 1.74334 29.5714 1.89153 29.9465C2.03971 30.3216 2.27899 30.8301 2.42327 31.0765C2.56766 31.3229 2.7138 31.613 2.74819 31.7212C2.78258 31.8295 2.89725 31.9964 3.00305 32.0921C3.10876 32.1879 3.19537 32.3174 3.19537 32.3799C3.19537 32.4425 3.32563 32.6658 3.48492 32.8763C3.64421 33.0867 3.77573 33.3116 3.77719 33.3759C3.77865 33.4402 3.83613 33.5279 3.90492 33.5707C3.9737 33.6136 4.16943 33.8416 4.33992 34.0774C5.20311 35.2708 7.72388 37.7893 8.05532 37.7893C8.11514 37.7893 8.16405 37.8317 8.16405 37.8838C8.16405 38.0325 10.434 39.5615 11.053 39.8297C11.1683 39.8797 11.2894 39.9638 11.322 40.0165C11.3546 40.0693 11.5233 40.1432 11.6968 40.1807C11.8704 40.2184 12.1219 40.325 12.2559 40.4179C12.4963 40.5845 14.0174 41.1991 14.1894 41.1991C14.2381 41.1991 14.4259 41.2609 14.6066 41.3364C14.7873 41.4119 14.9612 41.4667 14.9932 41.4582C15.0251 41.4497 15.1128 41.4934 15.188 41.5553C15.2632 41.6173 15.544 41.6988 15.8119 41.7365C16.0798 41.7742 16.5926 41.8844 16.9514 41.9816C17.3101 42.0786 17.8362 42.1851 18.1205 42.218C18.4047 42.251 18.7907 42.3036 18.9782 42.3349C19.1658 42.3662 21.2373 42.4116 23.5816 42.4359L27.8439 42.4801L27.8549 41.2794C27.861 40.6191 27.8726 39.5307 27.8807 38.8609C27.8971 37.5099 27.8151 36.8613 27.5545 36.2792C27.4585 36.0648 27.347 35.7799 27.3065 35.6459C27.2662 35.5119 27.2047 35.3804 27.1699 35.3536C27.1353 35.3268 26.9469 35.0857 26.7515 34.8178C26.2084 34.0732 25.0551 33.1128 24.7039 33.1128C24.6305 33.1128 24.5287 33.0755 24.4779 33.0299C24.2213 32.7999 23.0109 32.5954 21.4626 32.5204C19.1391 32.4079 18.424 32.284 17.5614 31.8442C17.3535 31.7382 17.122 31.6515 17.047 31.6515C16.972 31.6515 16.6414 31.5057 16.3125 31.3275C15.7858 31.0422 15.5295 30.9046 15.1182 30.6865C14.7334 30.4823 13.7485 29.6501 13.084 28.9676C12.3312 28.1943 11.1842 26.641 11.1842 26.3946C11.1842 26.3286 11.1033 26.1581 11.0043 26.0158C10.6987 25.5766 10.2228 24.104 10.096 23.2042C10.0294 22.733 9.93748 22.3212 9.89149 22.2891C9.80167 22.2265 9.84512 20.1998 9.94673 19.7169C9.98054 19.5561 10.0315 19.315 10.06 19.1811C10.2257 18.402 10.23 18.3042 10.099 18.3024C10.0261 18.3014 7.89486 18.3022 5.36308 18.3042C2.83129 18.3062 0.759741 18.2814 0.759741 18.2492C0.759741 18.0062 1.21949 16.4813 1.4879 15.8341C2.74312 12.8074 4.88716 10.2353 7.66445 8.42416C9.43447 7.26987 12.17 6.23921 13.8634 6.08839L14.448 6.03637L13.8147 6.16399C12.4857 6.43181 10.5267 7.02883 10.4048 7.20303C10.378 7.24132 10.2684 7.29451 10.1613 7.32131C10.0541 7.3481 12.9038 7.37479 16.4939 7.38073C21.8821 7.3896 22.9789 7.36943 22.7778 7.26567C22.3189 7.02874 21.3265 6.69067 20.2743 6.41291C19.6954 6.26015 19.3156 6.13311 19.4304 6.13057C19.7705 6.12327 21.4635 6.59188 22.392 6.95051C23.964 7.55756 25.6729 8.51895 26.8105 9.43601C26.912 9.51775 27.1312 9.69536 27.2977 9.83068C28.0201 10.4176 27.9495 10.8873 27.9195 5.687L27.8926 1.03066L27.6683 0.996369C27.5448 0.977566 27.317 0.896607 27.1619 0.816426C27.0069 0.736245 26.5489 0.621382 26.1441 0.561173C25.7394 0.500964 25.4083 0.41601 25.4083 0.372266C25.4083 0.328522 25.3315 0.291498 25.2378 0.290037C25.1441 0.288478 24.4974 0.222329 23.8008 0.143025C22.2532 -0.0333144 20.0236 -0.032438 18.3952 0.145071ZM16.9105 5.90465C16.711 5.92559 16.3602 5.92589 16.1311 5.90523C15.9019 5.88467 16.0652 5.86753 16.4939 5.86723C16.9226 5.86684 17.11 5.8837 16.9105 5.90465ZM15.203 6.00003C15.0824 6.02321 14.8852 6.02321 14.7646 6.00003C14.644 5.97674 14.7427 5.95774 14.9838 5.95774C15.2249 5.95774 15.3236 5.97674 15.203 6.00003ZM18.2232 6.00003C18.1026 6.02321 17.9054 6.02321 17.7848 6.00003C17.6642 5.97674 17.7629 5.95774 18.004 5.95774C18.2451 5.95774 18.3438 5.97674 18.2232 6.00003ZM19.0513 6.09579C18.9575 6.12035 18.8041 6.12035 18.7103 6.09579C18.6165 6.07134 18.6933 6.05127 18.8808 6.05127C19.0684 6.05127 19.1451 6.07134 19.0513 6.09579ZM21.9802 9.89479C22.0504 9.92295 22.1345 9.91944 22.1669 9.88709C22.1992 9.85475 22.1417 9.83176 22.039 9.83595C21.9255 9.84062 21.9024 9.86371 21.9802 9.89479ZM22.857 9.99222C22.9273 10.0204 23.0113 10.0169 23.0437 9.98452C23.076 9.95217 23.0186 9.92918 22.9159 9.93337C22.8024 9.93805 22.7793 9.96114 22.857 9.99222ZM39.5836 10.8025C39.6168 10.8561 39.6631 10.8999 39.6868 10.8999C39.7105 10.8999 39.7298 10.8561 39.7298 10.8025C39.7298 10.7489 39.6833 10.7051 39.6266 10.7051C39.5699 10.7051 39.5505 10.7489 39.5836 10.8025ZM40.1744 11.9027C40.2111 11.9988 40.2655 12.0529 40.2955 12.0228C40.3255 11.9929 40.2956 11.9143 40.229 11.8482C40.1327 11.7527 40.1216 11.7639 40.1744 11.9027ZM40.3856 12.3691C40.42 12.5008 40.4642 12.545 40.4885 12.4721C40.5119 12.4017 40.4848 12.298 40.4281 12.2413C40.3558 12.169 40.3432 12.2071 40.3856 12.3691ZM40.6797 20.4476C40.693 24.4664 40.715 31.0426 40.7284 35.0614L40.7527 42.3682H40.4686C40.3123 42.3682 40.2057 42.3895 40.2317 42.4155C40.2577 42.4415 40.7185 42.4825 41.2555 42.5066L42.232 42.5504L42.2975 36.9305C42.3336 33.8394 42.3591 28.68 42.3542 25.465C42.3451 19.5123 42.2943 18.4751 41.9385 16.9708C41.8601 16.6393 41.8187 16.3452 41.8465 16.3173C41.8744 16.2895 41.8627 16.1881 41.8205 16.092C41.7783 15.9959 41.7374 15.8954 41.7295 15.8686C41.7216 15.8418 41.6378 15.6445 41.5431 15.4302C41.4485 15.2159 41.3602 14.9101 41.3469 14.7509C41.3293 14.5381 41.2602 14.4439 41.0865 14.3952C40.8594 14.3318 40.8587 14.3288 41.0669 14.3195C41.2624 14.3108 41.2738 14.2834 41.182 14.0421C41.126 13.8948 41.0156 13.703 40.9368 13.6158C40.8579 13.5287 40.8061 13.4026 40.8217 13.3356C40.8374 13.2686 40.8063 13.1973 40.7527 13.1772C40.6883 13.153 40.6635 15.6068 40.6797 20.4476ZM21.0729 13.8849C19.8808 14.0196 18.9209 14.2385 18.7834 14.4072C18.7566 14.4401 18.5812 14.5264 18.3937 14.5991C17.569 14.9184 15.9468 16.3027 15.7356 16.8672C15.7006 16.9609 15.6288 17.0377 15.5761 17.0377C15.4286 17.0377 14.6282 18.762 14.4453 19.4733C14.317 19.9727 14.2926 20.3949 14.3299 21.4705C14.379 22.8869 14.4824 23.3089 15.0744 24.5104C15.1853 24.7356 15.2761 24.9575 15.2761 25.0037C15.2761 25.0498 15.4076 25.2135 15.5684 25.3676C15.7291 25.5216 15.8606 25.6824 15.8606 25.7249C15.8606 25.7675 16.1201 26.0634 16.4371 26.3823C18.143 28.099 20.495 28.8225 22.9387 28.3826C25.3166 27.9544 27.3703 26.3259 28.2938 24.1361C29.1182 22.1813 29.1307 20.3142 28.3327 18.3292C27.6606 16.6576 26.4592 15.4158 24.6776 14.5509C23.9686 14.2067 23.6025 14.0963 22.7653 13.974C22.1958 13.8908 21.6478 13.8292 21.5475 13.8373C21.4472 13.8453 21.2336 13.8667 21.0729 13.8849ZM41.0673 14.0764C41.035 14.1087 40.9509 14.1122 40.8807 14.0841C40.8029 14.053 40.826 14.0299 40.9395 14.0252C41.0422 14.021 41.0997 14.044 41.0673 14.0764ZM97.4095 16.4074C95.2033 16.8065 93.429 18.5198 92.973 20.6911C92.3167 23.8169 93.9515 26.6135 96.967 27.5238C97.401 27.6547 97.8654 27.6992 98.7694 27.6965C99.8217 27.6933 100.093 27.6575 100.767 27.4335C103.308 26.5881 104.732 24.4347 104.581 21.6654C104.495 20.0964 104.021 18.9767 103.01 17.9552C101.668 16.6001 99.5619 16.018 97.4095 16.4074ZM83.3762 17.7197V18.8888H84.8863H86.3964V23.1755V27.4622H87.8578H89.3192V23.1755V18.8888H90.8293H92.3393V17.7197V16.5506H87.8578H83.3762V17.7197ZM105.589 22.0064V27.4622H107.049H108.508L108.535 25.1844L108.561 22.9066L110.46 25.1787L112.36 27.4509L114.106 27.4565L115.853 27.4622L115.654 27.243C114.412 25.8716 111.156 21.8683 111.21 21.7791C111.282 21.6603 115.02 17.1519 115.364 16.7698L115.561 16.5506L113.814 16.5553L112.068 16.5599L110.314 18.6933L108.561 20.8266L108.534 18.6886L108.508 16.5506H107.049H105.589V22.0064ZM116.793 22.0064V27.4622H120.69H124.587V26.2931V25.124H122.103H119.618V24.1497V23.1755H121.469H123.321V22.0064V20.8373H121.469H119.618V19.863V18.8888H122.103H124.587V17.7197V16.5506H120.69H116.793V22.0064ZM125.659 22.0038V27.4622H127.07H128.481L128.507 24.344L128.533 21.2259L130.448 24.3197L132.363 27.4135L133.784 27.4405L135.206 27.4674V22.009V16.5506H133.795H132.384L132.358 19.672L132.332 22.7934L130.418 19.6963L128.503 16.5993L127.081 16.5723L125.659 16.5454V22.0038ZM99.9888 19.2688C100.997 19.7142 101.594 20.6042 101.671 21.7773C101.739 22.8174 101.507 23.4677 100.82 24.1569C100.19 24.79 99.6215 25.0263 98.7277 25.0271C96.775 25.0286 95.4277 23.2935 95.8399 21.3078C96.2214 19.4701 98.2204 18.4877 99.9888 19.2688ZM32.5393 21.4705C32.5413 21.6313 32.5631 21.6853 32.5878 21.5905C32.6126 21.4957 32.6109 21.3642 32.5842 21.2982C32.5575 21.2322 32.5374 21.3098 32.5393 21.4705ZM32.5357 22.8832C32.5357 23.0172 32.5578 23.072 32.5848 23.005C32.6119 22.9381 32.6119 22.8285 32.5848 22.7614C32.5578 22.6945 32.5357 22.7493 32.5357 22.8832ZM95.1021 33.4085C93.7557 33.8226 92.9475 35.3539 93.3481 36.7319C93.5831 37.54 93.9755 38.0115 94.7171 38.3765C95.3227 38.6748 95.3963 38.6877 96.2628 38.6498C97.0094 38.6172 97.2724 38.5612 97.7275 38.3386L98.2823 38.0672V36.9539V35.8408H97.649H97.0158V36.6232C97.0158 37.5281 96.9986 37.5457 96.1217 37.5457C95.7132 37.5457 95.4968 37.4924 95.2936 37.3419C94.8202 36.9911 94.5801 36.5451 94.5801 36.0163C94.5801 34.6352 95.9873 33.9296 97.1576 34.7238L97.514 34.9656L97.8964 34.6482C98.1067 34.4735 98.2796 34.2835 98.2805 34.2258C98.283 34.0809 97.9109 33.7548 97.5029 33.5443C97.1083 33.3407 95.6 33.2555 95.1021 33.4085ZM113.039 33.4571C112.499 33.6564 111.973 34.1109 111.654 34.6545C111.415 35.0603 111.386 35.2058 111.386 35.9869C111.386 36.7679 111.415 36.9135 111.654 37.3193C112.232 38.3024 113.089 38.7174 114.393 38.6458C115.336 38.5941 115.795 38.3895 116.371 37.7649C116.85 37.2445 117.028 36.7632 117.028 35.9869C117.028 35.2106 116.85 34.7293 116.371 34.2089C115.765 33.5521 115.342 33.3741 114.309 33.3405C113.71 33.321 113.307 33.358 113.039 33.4571ZM102.764 35.9869V38.5687H103.397H104.03V37.8867V37.2047H104.549H105.068L105.534 37.8867L106 38.5687H106.725H107.45L106.989 37.911C106.736 37.5494 106.472 37.1855 106.402 37.1024C106.295 36.9741 106.319 36.9265 106.559 36.7845C107.402 36.2864 107.568 34.8937 106.882 34.0777C106.403 33.5089 106.021 33.4097 104.298 33.4073L102.764 33.4051V35.9869ZM121.275 34.902C121.275 36.6708 121.376 37.3135 121.738 37.8293C122.115 38.3663 122.631 38.6068 123.505 38.6518C124.377 38.6966 124.865 38.5631 125.335 38.151C125.973 37.591 126.044 37.2983 126.046 35.2318L126.048 33.4051H125.421H124.794L124.764 35.2055L124.733 37.0059L124.463 37.2758C124.239 37.4995 124.109 37.5457 123.7 37.5457C123.266 37.5457 123.173 37.5074 122.923 37.2275L122.639 36.9093V35.1572V33.4051H121.957H121.275V34.902ZM130.627 35.9869V38.5687H131.261H131.894V37.8997V37.2307L132.844 37.1843C133.553 37.1496 133.896 37.0855 134.199 36.9305C134.926 36.5578 135.273 35.8846 135.173 35.0412C135.094 34.3664 134.806 33.9527 134.209 33.6556C133.733 33.4184 133.625 33.4051 132.167 33.4051H130.627V35.9869ZM105.196 34.4717C105.7 34.569 105.979 34.8548 105.979 35.2734C105.979 35.8969 105.6 36.133 104.6 36.133H104.03V35.2562V34.3794L104.396 34.3837C104.597 34.386 104.957 34.4257 105.196 34.4717ZM115.022 34.6426C115.492 34.9903 115.721 35.4319 115.721 35.9869C115.721 37.2015 114.46 37.9687 113.432 37.3789C112.993 37.1272 112.604 36.4724 112.604 35.9869C112.604 35.5014 112.993 34.8466 113.432 34.5949C113.905 34.3232 114.62 34.3446 115.022 34.6426ZM133.544 34.6521C134.04 35.0227 133.958 35.7618 133.394 35.9974C133.215 36.0719 132.805 36.133 132.482 36.133H131.894V35.2421V34.3511L132.596 34.41C133.057 34.4486 133.382 34.5317 133.544 34.6521Z" fill="#31393A"/>
<path fill-rule="evenodd" clip-rule="evenodd" d="M24.5071 0.24771C24.5742 0.274795 24.6838 0.274795 24.7507 0.24771C24.8177 0.220724 24.7629 0.198608 24.6289 0.198608C24.4949 0.198608 24.4402 0.220724 24.5071 0.24771ZM15.13 5.99433C14.2274 6.09897 13.2904 6.264 12.6456 6.43187C11.7678 6.66043 10.4727 7.10615 10.4048 7.20308C10.3781 7.24137 10.2684 7.29457 10.1613 7.32136C10.0541 7.34815 12.9038 7.37484 16.4939 7.38079C23.7024 7.39258 23.4165 7.42395 21.6252 6.81806C20.4282 6.41326 19.2739 6.15021 18.1783 6.03272C17.2891 5.93743 15.7849 5.91844 15.13 5.99433ZM21.9802 9.89484C22.0505 9.923 22.1345 9.91949 22.1669 9.88715C22.1992 9.8548 22.1417 9.83181 22.0391 9.836C21.9256 9.84068 21.9025 9.86377 21.9802 9.89484ZM22.857 9.99227C22.9273 10.0204 23.0114 10.0169 23.0437 9.98457C23.0761 9.95223 23.0186 9.92924 22.9159 9.93342C22.8024 9.9381 22.7793 9.96119 22.857 9.99227ZM39.5837 10.8026C39.6168 10.8561 39.6632 10.9 39.6868 10.9C39.7105 10.9 39.7298 10.8561 39.7298 10.8026C39.7298 10.749 39.6833 10.7051 39.6266 10.7051C39.5699 10.7051 39.5505 10.749 39.5837 10.8026ZM40.1744 11.9028C40.2111 11.9988 40.2655 12.0529 40.2955 12.0229C40.3256 11.993 40.2956 11.9144 40.229 11.8482C40.1328 11.7527 40.1216 11.7639 40.1744 11.9028ZM40.3856 12.3691C40.4201 12.5009 40.4642 12.5451 40.4885 12.4721C40.5119 12.4018 40.4848 12.298 40.4281 12.2413C40.3559 12.169 40.3432 12.2071 40.3856 12.3691ZM40.6797 20.4476C40.693 24.4664 40.7151 31.0426 40.7284 35.0614L40.7528 42.3683H40.4686C40.3123 42.3683 40.2057 42.3895 40.2317 42.4155C40.2577 42.4416 40.7185 42.4826 41.2555 42.5066L42.232 42.5505L42.2975 36.9305C42.3336 33.8395 42.3591 28.6801 42.3542 25.465C42.3451 19.5124 42.2943 18.4752 41.9385 16.9708C41.8601 16.6394 41.8187 16.3453 41.8466 16.3174C41.8744 16.2895 41.8627 16.1881 41.8205 16.0921C41.7784 15.996 41.7374 15.8955 41.7295 15.8687C41.7217 15.8419 41.6378 15.6446 41.5431 15.4302C41.4485 15.2159 41.3602 14.9102 41.347 14.751C41.3293 14.5381 41.2603 14.4439 41.0865 14.3953C40.8594 14.3319 40.8588 14.3289 41.067 14.3196C41.2624 14.3108 41.2738 14.2835 41.182 14.0421C41.126 13.8948 41.0156 13.7031 40.9368 13.6159C40.8579 13.5287 40.8062 13.4026 40.8217 13.3356C40.8374 13.2687 40.8063 13.1974 40.7528 13.1773C40.6883 13.153 40.6635 15.6069 40.6797 20.4476ZM41.0674 14.0764C41.035 14.1088 40.9509 14.1123 40.8807 14.0841C40.8029 14.053 40.826 14.03 40.9395 14.0253C41.0422 14.0211 41.0997 14.0441 41.0674 14.0764ZM32.5393 21.4706C32.5413 21.6314 32.5631 21.6853 32.5879 21.5905C32.6126 21.4957 32.6109 21.3642 32.5843 21.2983C32.5576 21.2323 32.5374 21.3099 32.5393 21.4706ZM32.5357 22.8833C32.5357 23.0172 32.5579 23.0721 32.5848 23.005C32.6119 22.9381 32.6119 22.8285 32.5848 22.7615C32.5579 22.6946 32.5357 22.7493 32.5357 22.8833ZM20.8555 28.504C20.9503 28.5288 21.0819 28.5271 21.1478 28.5004C21.2138 28.4737 21.1362 28.4535 20.9755 28.4555C20.8147 28.4574 20.7607 28.4793 20.8555 28.504ZM22.0715 28.501C22.1385 28.5281 22.2481 28.5281 22.3151 28.501C22.3821 28.474 22.3272 28.4519 22.1933 28.4519C22.0593 28.4519 22.0046 28.474 22.0715 28.501ZM95.1021 33.4086C93.7557 33.8226 92.9475 35.354 93.3481 36.732C93.5831 37.5401 93.9755 38.0115 94.7171 38.3766C95.3227 38.6748 95.3963 38.6878 96.2629 38.6499C97.0094 38.6172 97.2724 38.5613 97.7276 38.3387L98.2823 38.0673V36.954V35.8408H97.649H97.0158V36.6232C97.0158 37.5281 96.9986 37.5457 96.1217 37.5457C95.7132 37.5457 95.4968 37.4925 95.2936 37.3419C94.8202 36.9912 94.5801 36.5452 94.5801 36.0164C94.5801 34.6353 95.9874 33.9296 97.1576 34.7238L97.514 34.9656L97.8964 34.6482C98.1067 34.4735 98.2796 34.2836 98.2805 34.2259C98.283 34.0809 97.9109 33.7548 97.5029 33.5444C97.1083 33.3408 95.6 33.2555 95.1021 33.4086ZM113.039 33.4572C112.499 33.6564 111.973 34.1109 111.654 34.6546C111.415 35.0603 111.386 35.2059 111.386 35.9869C111.386 36.768 111.415 36.9136 111.654 37.3193C112.232 38.3024 113.089 38.7175 114.393 38.6459C115.336 38.5941 115.795 38.3895 116.371 37.765C116.85 37.2445 117.028 36.7632 117.028 35.9869C117.028 35.2107 116.85 34.7294 116.371 34.2089C115.765 33.5522 115.343 33.3742 114.309 33.3406C113.71 33.3211 113.307 33.358 113.039 33.4572ZM102.764 35.9869V38.5687H103.397H104.03V37.8867V37.2048H104.549H105.068L105.534 37.8867L106 38.5687H106.725H107.45L106.989 37.9111C106.736 37.5494 106.472 37.1856 106.402 37.1025C106.295 36.9742 106.319 36.9265 106.559 36.7846C107.402 36.2864 107.568 34.8937 106.882 34.0777C106.403 33.5089 106.021 33.4098 104.298 33.4073L102.764 33.4052V35.9869ZM121.275 34.902C121.275 36.6709 121.376 37.3136 121.738 37.8294C122.115 38.3664 122.631 38.6069 123.505 38.6518C124.377 38.6966 124.865 38.5632 125.335 38.151C125.973 37.5911 126.044 37.2984 126.046 35.2319L126.048 33.4052H125.421H124.794L124.764 35.2056L124.733 37.0059L124.463 37.2759C124.239 37.4996 124.109 37.5457 123.7 37.5457C123.266 37.5457 123.173 37.5075 122.923 37.2276L122.639 36.9094V35.1573V33.4052H121.957H121.275V34.902ZM130.627 35.9869V38.5687H131.261H131.894V37.8998V37.2308L132.844 37.1844C133.553 37.1496 133.896 37.0855 134.199 36.9305C134.926 36.5579 135.273 35.8847 135.173 35.0412C135.094 34.3665 134.806 33.9528 134.209 33.6557C133.733 33.4184 133.625 33.4052 132.167 33.4052H130.627V35.9869ZM105.196 34.4718C105.7 34.569 105.979 34.8549 105.979 35.2735C105.979 35.8969 105.6 36.1331 104.6 36.1331H104.03V35.2563V34.3794L104.396 34.3837C104.597 34.3861 104.957 34.4257 105.196 34.4718ZM115.022 34.6427C115.492 34.9904 115.721 35.4319 115.721 35.9869C115.721 37.2015 114.46 37.9688 113.432 37.379C112.993 37.1272 112.604 36.4724 112.604 35.9869C112.604 35.5015 112.993 34.8467 113.432 34.5949C113.905 34.3232 114.62 34.3447 115.022 34.6427ZM133.544 34.6521C134.04 35.0227 133.958 35.7619 133.394 35.9975C133.215 36.072 132.805 36.1331 132.482 36.1331H131.894V35.2421V34.3512L132.596 34.41C133.057 34.4487 133.382 34.5318 133.544 34.6521ZM6.31299 36.3648C6.31299 36.3849 6.38966 36.4617 6.48348 36.5353C6.638 36.6564 6.64141 36.6529 6.52031 36.4984C6.39297 36.3361 6.31299 36.2846 6.31299 36.3648ZM20.0256 42.4328C20.0926 42.4599 20.2022 42.4599 20.2691 42.4328C20.3362 42.4058 20.2813 42.3837 20.1474 42.3837C20.0134 42.3837 19.9586 42.4058 20.0256 42.4328Z" fill="#31393A"/>
<path fill-rule="evenodd" clip-rule="evenodd" d="M24.5071 0.24771C24.5742 0.274795 24.6838 0.274795 24.7507 0.24771C24.8177 0.220724 24.7629 0.198608 24.6289 0.198608C24.4949 0.198608 24.4402 0.220724 24.5071 0.24771ZM15.13 5.99433C14.2274 6.09897 13.2904 6.264 12.6456 6.43187C11.7678 6.66043 10.4727 7.10615 10.4048 7.20308C10.3781 7.24137 10.2684 7.29457 10.1613 7.32136C10.0541 7.34815 12.9038 7.37484 16.4939 7.38079C23.7024 7.39258 23.4165 7.42395 21.6252 6.81806C20.4282 6.41326 19.2739 6.15021 18.1783 6.03272C17.2891 5.93743 15.7849 5.91844 15.13 5.99433ZM21.9802 9.89484C22.0505 9.923 22.1345 9.91949 22.1669 9.88715C22.1992 9.8548 22.1417 9.83181 22.0391 9.836C21.9256 9.84068 21.9025 9.86377 21.9802 9.89484ZM22.857 9.99227C22.9273 10.0204 23.0114 10.0169 23.0437 9.98457C23.0761 9.95223 23.0186 9.92924 22.9159 9.93342C22.8024 9.9381 22.7793 9.96119 22.857 9.99227ZM39.5837 10.8026C39.6168 10.8561 39.6632 10.9 39.6868 10.9C39.7105 10.9 39.7298 10.8561 39.7298 10.8026C39.7298 10.749 39.6833 10.7051 39.6266 10.7051C39.5699 10.7051 39.5505 10.749 39.5837 10.8026ZM40.1744 11.9028C40.2111 11.9988 40.2655 12.0529 40.2955 12.0229C40.3256 11.993 40.2956 11.9144 40.229 11.8482C40.1328 11.7527 40.1216 11.7639 40.1744 11.9028ZM40.3856 12.3691C40.4201 12.5009 40.4642 12.5451 40.4885 12.4721C40.5119 12.4018 40.4848 12.298 40.4281 12.2413C40.3559 12.169 40.3432 12.2071 40.3856 12.3691ZM40.6797 20.4476C40.693 24.4664 40.7151 31.0426 40.7284 35.0614L40.7528 42.3683H40.4686C40.3123 42.3683 40.2057 42.3895 40.2317 42.4155C40.2577 42.4416 40.7185 42.4826 41.2555 42.5066L42.232 42.5505L42.2975 36.9305C42.3336 33.8395 42.3591 28.6801 42.3542 25.465C42.3451 19.5124 42.2943 18.4752 41.9385 16.9708C41.8601 16.6394 41.8187 16.3453 41.8466 16.3174C41.8744 16.2895 41.8627 16.1881 41.8205 16.0921C41.7784 15.996 41.7374 15.8955 41.7295 15.8687C41.7217 15.8419 41.6378 15.6446 41.5431 15.4302C41.4485 15.2159 41.3602 14.9102 41.347 14.751C41.3293 14.5381 41.2603 14.4439 41.0865 14.3953C40.8594 14.3319 40.8588 14.3289 41.067 14.3196C41.2624 14.3108 41.2738 14.2835 41.182 14.0421C41.126 13.8948 41.0156 13.7031 40.9368 13.6159C40.8579 13.5287 40.8062 13.4026 40.8217 13.3356C40.8374 13.2687 40.8063 13.1974 40.7528 13.1773C40.6883 13.153 40.6635 15.6069 40.6797 20.4476ZM41.0674 14.0764C41.035 14.1088 40.9509 14.1123 40.8807 14.0841C40.8029 14.053 40.826 14.03 40.9395 14.0253C41.0422 14.0211 41.0997 14.0441 41.0674 14.0764ZM32.5357 21.4219C32.5357 21.5558 32.5579 21.6107 32.5848 21.5437C32.6119 21.4767 32.6119 21.3671 32.5848 21.3001C32.5579 21.2332 32.5357 21.2879 32.5357 21.4219ZM32.5357 22.8833C32.5357 23.0172 32.5579 23.0721 32.5848 23.005C32.6119 22.9381 32.6119 22.8285 32.5848 22.7615C32.5579 22.6946 32.5357 22.7493 32.5357 22.8833ZM20.8555 28.504C20.9503 28.5288 21.0819 28.5271 21.1478 28.5004C21.2138 28.4737 21.1362 28.4535 20.9755 28.4555C20.8147 28.4574 20.7607 28.4793 20.8555 28.504ZM22.0715 28.501C22.1385 28.5281 22.2481 28.5281 22.3151 28.501C22.3821 28.474 22.3272 28.4519 22.1933 28.4519C22.0593 28.4519 22.0046 28.474 22.0715 28.501ZM95.1021 33.4086C93.7557 33.8226 92.9475 35.354 93.3481 36.732C93.5831 37.5401 93.9755 38.0115 94.7171 38.3766C95.3227 38.6748 95.3963 38.6878 96.2629 38.6499C97.0094 38.6172 97.2724 38.5613 97.7276 38.3387L98.2823 38.0673V36.954V35.8408H97.649H97.0158V36.6232C97.0158 37.5281 96.9986 37.5457 96.1217 37.5457C95.7132 37.5457 95.4968 37.4925 95.2936 37.3419C94.8202 36.9912 94.5801 36.5452 94.5801 36.0164C94.5801 34.6353 95.9874 33.9296 97.1576 34.7238L97.514 34.9656L97.8964 34.6482C98.1067 34.4735 98.2796 34.2836 98.2805 34.2259C98.283 34.0809 97.9109 33.7548 97.5029 33.5444C97.1083 33.3408 95.6 33.2555 95.1021 33.4086ZM113.039 33.4572C112.499 33.6564 111.973 34.1109 111.654 34.6546C111.415 35.0603 111.386 35.2059 111.386 35.9869C111.386 36.768 111.415 36.9136 111.654 37.3193C112.232 38.3024 113.089 38.7175 114.393 38.6459C115.336 38.5941 115.795 38.3895 116.371 37.765C116.85 37.2445 117.028 36.7632 117.028 35.9869C117.028 35.2107 116.85 34.7294 116.371 34.2089C115.765 33.5522 115.343 33.3742 114.309 33.3406C113.71 33.3211 113.307 33.358 113.039 33.4572ZM102.764 35.9869V38.5687H103.397H104.03V37.8867V37.2048H104.549H105.068L105.534 37.8867L106 38.5687H106.725H107.45L106.989 37.9111C106.736 37.5494 106.472 37.1856 106.402 37.1025C106.295 36.9742 106.319 36.9265 106.559 36.7846C107.402 36.2864 107.568 34.8937 106.882 34.0777C106.403 33.5089 106.021 33.4098 104.298 33.4073L102.764 33.4052V35.9869ZM121.275 34.902C121.275 36.6709 121.376 37.3136 121.738 37.8294C122.115 38.3664 122.631 38.6069 123.505 38.6518C124.377 38.6966 124.865 38.5632 125.335 38.151C125.973 37.5911 126.044 37.2984 126.046 35.2319L126.048 33.4052H125.421H124.794L124.764 35.2056L124.733 37.0059L124.463 37.2759C124.239 37.4996 124.109 37.5457 123.7 37.5457C123.266 37.5457 123.173 37.5075 122.923 37.2276L122.639 36.9094V35.1573V33.4052H121.957H121.275V34.902ZM130.627 35.9869V38.5687H131.261H131.894V37.8998V37.2308L132.844 37.1844C133.553 37.1496 133.896 37.0855 134.199 36.9305C134.926 36.5579 135.273 35.8847 135.173 35.0412C135.094 34.3665 134.806 33.9528 134.209 33.6557C133.733 33.4184 133.625 33.4052 132.167 33.4052H130.627V35.9869ZM105.196 34.4718C105.7 34.569 105.979 34.8549 105.979 35.2735C105.979 35.8969 105.6 36.1331 104.6 36.1331H104.03V35.2563V34.3794L104.396 34.3837C104.597 34.3861 104.957 34.4257 105.196 34.4718ZM115.022 34.6427C115.492 34.9904 115.721 35.4319 115.721 35.9869C115.721 37.2015 114.46 37.9688 113.432 37.379C112.993 37.1272 112.604 36.4724 112.604 35.9869C112.604 35.5015 112.993 34.8467 113.432 34.5949C113.905 34.3232 114.62 34.3447 115.022 34.6427ZM133.544 34.6521C134.04 35.0227 133.958 35.7619 133.394 35.9975C133.215 36.072 132.805 36.1331 132.482 36.1331H131.894V35.2421V34.3512L132.596 34.41C133.057 34.4487 133.382 34.5318 133.544 34.6521ZM6.31299 36.3648C6.31299 36.3849 6.38966 36.4617 6.48348 36.5353C6.638 36.6564 6.64141 36.6529 6.52031 36.4984C6.39297 36.3361 6.31299 36.2846 6.31299 36.3648ZM20.0256 42.4328C20.0926 42.4599 20.2022 42.4599 20.2691 42.4328C20.3362 42.4058 20.2813 42.3837 20.1474 42.3837C20.0134 42.3837 19.9586 42.4058 20.0256 42.4328Z" fill="#31393A"/>
<path fill-rule="evenodd" clip-rule="evenodd" d="M15.1298 5.99442C14.2273 6.09906 13.2902 6.2641 12.6455 6.43196C11.7677 6.66052 10.4725 7.10624 10.4047 7.20318C10.3779 7.24146 10.2683 7.29466 10.1611 7.32145C10.054 7.34824 12.9036 7.37494 16.4938 7.38088C23.7022 7.39267 23.4163 7.42404 21.625 6.81815C20.4281 6.41335 19.2738 6.1503 18.1781 6.03281C17.2889 5.93753 15.7847 5.91853 15.1298 5.99442ZM21.9801 9.89494C22.0503 9.92309 22.1344 9.91958 22.1667 9.88724C22.1991 9.85489 22.1416 9.8319 22.0389 9.83609C21.9254 9.84077 21.9023 9.86386 21.9801 9.89494ZM22.8569 9.99236C22.9271 10.0205 23.0112 10.017 23.0436 9.98466C23.0759 9.95232 23.0184 9.92933 22.9157 9.93352C22.8022 9.93819 22.7791 9.96128 22.8569 9.99236ZM39.5835 10.8026C39.6166 10.8562 39.663 10.9001 39.6867 10.9001C39.7104 10.9001 39.7297 10.8562 39.7297 10.8026C39.7297 10.7491 39.6832 10.7052 39.6265 10.7052C39.5698 10.7052 39.5504 10.7491 39.5835 10.8026ZM40.1743 11.9029C40.2109 11.9989 40.2654 12.053 40.2954 12.023C40.3254 11.9931 40.2955 11.9145 40.2289 11.8483C40.1326 11.7528 40.1215 11.764 40.1743 11.9029ZM40.3854 12.3692C40.4199 12.501 40.464 12.5452 40.4884 12.4722C40.5118 12.4019 40.4847 12.2981 40.428 12.2414C40.3557 12.1691 40.343 12.2072 40.3854 12.3692ZM40.6795 20.4477C40.6929 24.4665 40.7149 31.0427 40.7283 35.0615L40.7526 42.3684H40.4684C40.3122 42.3684 40.2056 42.3896 40.2316 42.4156C40.2576 42.4416 40.7183 42.4827 41.2553 42.5067L42.2318 42.5506L42.2974 36.9306C42.3334 33.8396 42.359 28.6802 42.3541 25.4651C42.3449 19.5125 42.2942 18.4753 41.9384 16.9709C41.8599 16.6395 41.8185 16.3454 41.8464 16.3175C41.8743 16.2896 41.8626 16.1882 41.8204 16.0921C41.7782 15.9961 41.7373 15.8955 41.7294 15.8688C41.7215 15.842 41.6376 15.6447 41.5429 15.4303C41.4483 15.216 41.3601 14.9103 41.3468 14.7511C41.3292 14.5382 41.2601 14.444 41.0864 14.3954C40.8593 14.332 40.8586 14.3289 41.0668 14.3197C41.2622 14.3109 41.2736 14.2835 41.1819 14.0422C41.1259 13.8949 41.0155 13.7032 40.9367 13.616C40.8577 13.5288 40.806 13.4027 40.8216 13.3357C40.8373 13.2688 40.8062 13.1975 40.7526 13.1774C40.6881 13.1531 40.6634 15.607 40.6795 20.4477ZM41.0672 14.0765C41.0349 14.1089 40.9508 14.1124 40.8805 14.0842C40.8028 14.0531 40.8259 14.03 40.9394 14.0254C41.0421 14.0212 41.0995 14.0442 41.0672 14.0765ZM32.5356 21.422C32.5356 21.5559 32.5577 21.6108 32.5847 21.5438C32.6118 21.4768 32.6118 21.3672 32.5847 21.3002C32.5577 21.2333 32.5356 21.288 32.5356 21.422ZM32.5356 22.8834C32.5356 23.0173 32.5577 23.0722 32.5847 23.0051C32.6118 22.9382 32.6118 22.8286 32.5847 22.7616C32.5577 22.6946 32.5356 22.7494 32.5356 22.8834ZM20.0254 42.4329C20.0925 42.46 20.2021 42.46 20.269 42.4329C20.336 42.4059 20.2812 42.3838 20.1472 42.3838C20.0132 42.3838 19.9585 42.4059 20.0254 42.4329Z" fill="#31393A"/>
<path fill-rule="evenodd" clip-rule="evenodd" d="M15.1298 5.99442C14.2273 6.09906 13.2902 6.2641 12.6455 6.43196C11.7677 6.66052 10.4725 7.10624 10.4047 7.20318C10.3779 7.24146 10.2683 7.29466 10.1611 7.32145C10.054 7.34824 12.9036 7.37494 16.4938 7.38088C23.7022 7.39267 23.4163 7.42404 21.625 6.81815C20.4281 6.41335 19.2738 6.1503 18.1781 6.03281C17.2889 5.93753 15.7847 5.91853 15.1298 5.99442ZM21.9801 9.89494C22.0503 9.92309 22.1344 9.91958 22.1667 9.88724C22.1991 9.85489 22.1416 9.8319 22.0389 9.83609C21.9254 9.84077 21.9023 9.86386 21.9801 9.89494ZM22.8569 9.99236C22.9271 10.0205 23.0112 10.017 23.0436 9.98466C23.0759 9.95232 23.0184 9.92933 22.9157 9.93352C22.8022 9.93819 22.7791 9.96128 22.8569 9.99236ZM39.5835 10.8026C39.6166 10.8562 39.663 10.9001 39.6867 10.9001C39.7104 10.9001 39.7297 10.8562 39.7297 10.8026C39.7297 10.7491 39.6832 10.7052 39.6265 10.7052C39.5698 10.7052 39.5504 10.7491 39.5835 10.8026ZM40.1743 11.9029C40.2109 11.9989 40.2654 12.053 40.2954 12.023C40.3254 11.9931 40.2955 11.9145 40.2289 11.8483C40.1326 11.7528 40.1215 11.764 40.1743 11.9029ZM40.3854 12.3692C40.4199 12.501 40.464 12.5452 40.4884 12.4722C40.5118 12.4019 40.4847 12.2981 40.428 12.2414C40.3557 12.1691 40.343 12.2072 40.3854 12.3692ZM40.6795 20.4477C40.6929 24.4665 40.7149 31.0427 40.7283 35.0615L40.7526 42.3684H40.4684C40.3122 42.3684 40.2056 42.3896 40.2316 42.4156C40.2576 42.4416 40.7183 42.4827 41.2553 42.5067L42.2318 42.5506L42.2974 36.9306C42.3334 33.8396 42.359 28.6802 42.3541 25.4651C42.3449 19.5125 42.2942 18.4753 41.9384 16.9709C41.8599 16.6395 41.8185 16.3454 41.8464 16.3175C41.8743 16.2896 41.8626 16.1882 41.8204 16.0921C41.7782 15.9961 41.7373 15.8955 41.7294 15.8688C41.7215 15.842 41.6376 15.6447 41.5429 15.4303C41.4483 15.216 41.3601 14.9103 41.3468 14.7511C41.3292 14.5382 41.2601 14.444 41.0864 14.3954C40.8593 14.332 40.8586 14.3289 41.0668 14.3197C41.2622 14.3109 41.2736 14.2835 41.1819 14.0422C41.1259 13.8949 41.0155 13.7032 40.9367 13.616C40.8577 13.5288 40.806 13.4027 40.8216 13.3357C40.8373 13.2688 40.8062 13.1975 40.7526 13.1774C40.6881 13.1531 40.6634 15.607 40.6795 20.4477ZM41.0672 14.0765C41.0349 14.1089 40.9508 14.1124 40.8805 14.0842C40.8028 14.0531 40.8259 14.03 40.9394 14.0254C41.0421 14.0212 41.0995 14.0442 41.0672 14.0765Z" fill="#31393A"/>
</svg>
