<svg width="433" height="87" viewBox="0 0 433 87" fill="none" xmlns="http://www.w3.org/2000/svg">
<path d="M26.4874 36.5564L43.3066 19.6662L60.1326 36.5701L69.9136 26.737L43.3066 0L16.6996 26.7301L26.4874 36.5564Z" fill="white"/>
<path d="M0 43.5015L9.78424 33.672L19.5685 43.5015L9.78424 53.331L0 43.5015Z" fill="white"/>
<path d="M26.4874 50.4436L43.3066 67.3407L60.1326 50.4368L69.9204 60.2561L43.3066 87L16.6859 60.263L26.4874 50.4436Z" fill="white"/>
<path d="M67.0281 43.5039L76.8123 33.6744L86.5966 43.5039L76.8123 53.3334L67.0281 43.5039Z" fill="white"/>
<path d="M53.2312 43.4966L43.3066 33.5191L35.9674 40.8923L35.1193 41.7375L33.3683 43.4966L33.382 43.5172L43.3066 53.4808L53.238 43.4966H53.2312Z" fill="white"/>
<path d="M101.863 21.0817H123.148C128.428 21.0817 132.423 22.456 135.132 25.2046C136.152 26.22 136.956 27.433 137.496 28.7701C138.036 30.1072 138.299 31.5406 138.271 32.9832V33.1137C138.289 34.2955 138.126 35.473 137.785 36.6045C137.482 37.5784 137.042 38.504 136.479 39.3531C135.954 40.1537 135.318 40.8755 134.591 41.497C133.881 42.1111 133.103 42.6414 132.272 43.0774C134.667 43.9155 136.821 45.3312 138.545 47.2003C140.068 48.9411 140.829 51.3461 140.829 54.4154V54.5459C140.872 56.4628 140.457 58.3621 139.618 60.0844C138.806 61.6712 137.614 63.031 136.151 64.0423C134.496 65.1568 132.653 65.9601 130.713 66.413C128.408 66.9622 126.044 67.2276 123.675 67.2032H101.863V21.0817ZM121.014 39.731C122.856 39.8204 124.688 39.4223 126.329 38.5766C126.968 38.2012 127.491 37.6534 127.836 36.9951C128.182 36.3369 128.337 35.5946 128.285 34.8522V34.7217C128.319 34.0376 128.18 33.3561 127.883 32.74C127.585 32.1238 127.138 31.593 126.582 31.1966C125.446 30.3858 123.807 29.9803 121.664 29.9803H111.705V39.731H121.014ZM123.702 58.3184C125.537 58.4217 127.363 57.9999 128.969 57.1021C129.594 56.6984 130.101 56.1335 130.435 55.4664C130.77 54.7993 130.92 54.0543 130.87 53.3091V53.1785C130.895 52.4701 130.746 51.7664 130.437 51.1291C130.129 50.4918 129.669 49.9403 129.099 49.5229C127.922 48.6067 126.021 48.1486 123.394 48.1486H111.705V58.3184H123.702Z" fill="white"/>
<path d="M153.51 21.0817H163.613V67.217H153.51V21.0817Z" fill="white"/>
<path d="M178.9 21.0817H188.216L209.747 49.4748V21.0817H219.72V67.217H211.122L188.886 37.8894V67.217H178.9V21.0817Z" fill="white"/>
<path d="M250.308 20.7519H259.61L279.288 67.217H268.741L264.541 56.8685H245.123L240.923 67.217H230.623L250.308 20.7519ZM260.937 47.9081L254.822 32.9419L248.735 47.9081H260.937Z" fill="white"/>
<path d="M290.211 21.0817H299.527L321.045 49.4748V21.0817H331.018V67.217H322.42L300.184 37.8894V67.217H290.211V21.0817Z" fill="white"/>
<path d="M367.379 68.0278C364.159 68.0555 360.967 67.4291 357.994 66.1862C355.196 65.0254 352.657 63.3135 350.527 61.1515C348.397 58.9895 346.72 56.4211 345.594 53.5977C344.405 50.6444 343.803 47.486 343.822 44.3005V44.17C343.769 37.891 346.174 31.8425 350.518 27.3279C352.656 25.1227 355.215 23.3744 358.042 22.1881C361.117 20.9083 364.419 20.2701 367.748 20.3121C369.716 20.2974 371.682 20.4746 373.616 20.8412C375.272 21.1557 376.89 21.6416 378.445 22.2911C379.857 22.888 381.199 23.6392 382.447 24.5312C383.665 25.4012 384.808 26.3711 385.867 27.431L379.444 34.8797C377.803 33.3586 375.962 32.0708 373.972 31.0523C372.018 30.1134 369.873 29.643 367.707 29.678C365.904 29.6587 364.118 30.0249 362.467 30.7523C360.816 31.4797 359.338 32.5517 358.131 33.8971C356.934 35.239 355.997 36.7933 355.368 38.4804C354.709 40.2632 354.377 42.1514 354.39 44.0532V44.1837C354.383 46.0827 354.714 47.9676 355.368 49.7496C355.989 51.4427 356.917 53.0059 358.104 54.3604C359.301 55.7225 360.776 56.8102 362.428 57.55C364.08 58.2897 365.871 58.6643 367.679 58.6482C369.983 58.7211 372.268 58.2232 374.335 57.1983C376.302 56.1213 378.121 54.7907 379.745 53.2403L386.174 59.7683C385.039 61.0061 383.811 62.1547 382.501 63.204C381.214 64.2262 379.817 65.0998 378.336 65.8083C376.757 66.5548 375.095 67.1062 373.384 67.4506C371.407 67.8488 369.395 68.0422 367.379 68.0278Z" fill="white"/>
<path d="M398.096 21.0817H432.658V30.1109H408.035V39.4699H429.717V48.499H408.069V58.1878H433V67.217H398.117L398.096 21.0817Z" fill="white"/>
</svg>
