<svg width="681" height="90" viewBox="0 0 681 90" fill="none" xmlns="http://www.w3.org/2000/svg">
<path d="M285.401 63.8399C265.85 63.8399 251.63 50.3999 251.63 31.9199C251.63 13.44 265.85 0 285.655 0C296.319 0 305.46 3.83999 311.3 11.04L311.808 11.76L301.398 21.36L300.636 20.64C296.827 16.08 291.749 13.92 286.163 13.92C275.244 13.92 267.627 21.36 267.627 32.1599C267.627 42.9599 275.244 50.3999 286.163 50.3999C292.003 50.3999 296.827 48.2399 300.636 43.6799L301.398 42.9599L311.808 52.5599L311.3 53.2799C305.46 60.4799 296.319 64.3199 285.401 64.3199V63.8399Z" fill="white"/>
<path fill-rule="evenodd" clip-rule="evenodd" d="M103.343 62.8801V0.960165H134.066C149.047 0.960165 157.934 7.20015 157.934 17.5201C157.934 23.0401 155.395 27.6001 151.079 30.4801C157.427 33.1201 160.981 38.6401 160.981 45.6001C160.981 56.6401 152.094 62.8801 135.844 62.8801H103.343ZM119.085 50.6401H134.574C143.715 50.6401 144.731 47.0401 144.731 44.1601C144.731 39.8401 141.43 37.6801 134.574 37.6801H119.085V50.6401ZM119.085 25.6801H132.035C138.383 25.6801 141.684 23.5201 141.684 19.4401C141.684 18.0001 141.684 13.4401 132.035 13.4401H119.085V25.6801Z" fill="white"/>
<path d="M185.866 62.8801H169.869V0.960165H185.866V62.8801Z" fill="white"/>
<path d="M213.796 62.8801H229.539V14.1601H249.091V0.960165H194.245V14.1601H213.796V62.8801Z" fill="white"/>
<path fill-rule="evenodd" clip-rule="evenodd" d="M314.093 31.9199C314.093 50.3999 328.566 63.8399 348.372 63.8399C368.177 63.8399 382.65 50.3999 382.65 31.9199C382.65 13.44 368.177 0 348.372 0C328.566 0 314.093 13.44 314.093 31.9199ZM330.344 31.9199C330.344 21.36 337.961 13.68 348.372 13.68C358.782 13.68 366.4 21.36 366.4 31.9199C366.4 42.4799 358.782 50.1599 348.372 50.1599C337.961 50.1599 330.344 42.4799 330.344 31.9199Z" fill="white"/>
<path d="M406.263 62.8801H390.266V0.960165H406.263V62.8801Z" fill="white"/>
<path d="M460.855 62.8801H473.805V0.960165H458.062V35.5201L429.37 0.960165H416.42V62.8801H432.163V28.3201L460.855 62.8801Z" fill="white"/>
<path d="M498.688 62.8801H482.692V0.960165H498.688V62.8801Z" fill="white"/>
<path d="M507.068 56.6399C512.908 60.9599 522.811 63.8399 532.459 63.8399V64.0799C552.011 64.0799 559.121 53.5199 559.121 44.6399C559.121 31.3176 546.646 28.3712 536.536 25.9831L536.268 25.92C529.666 24.48 523.826 23.04 523.826 19.2C523.826 15.36 527.635 13.2 534.491 13.2C539.823 13.2 545.409 14.88 550.741 17.76L551.757 18.24L556.835 5.99999L556.074 5.51999C550.487 1.92 542.616 0 534.491 0C518.24 0 507.83 7.67999 508.084 19.44C508.084 33.0022 520.562 35.9496 530.673 38.3379L530.936 38.3999C537.538 39.8399 543.378 41.2799 543.378 45.1199C543.378 49.9199 536.776 50.6399 532.713 50.6399C525.858 50.6399 518.24 48.4799 513.162 44.6399L512.146 43.9199L506.56 56.1599L507.068 56.6399Z" fill="white"/>
<path d="M598.223 62.8801H582.48V14.1601H562.929V0.960165H617.774V14.1601H598.223V62.8801Z" fill="white"/>
<path d="M624.883 12.7195C624.883 13.9195 627.169 14.8795 627.169 14.8795C628.438 14.8795 629.454 13.9195 629.454 12.7195C629.454 11.5195 628.438 10.5595 627.169 10.5595C625.899 10.5595 624.883 11.5195 624.883 12.7195Z" fill="white"/>
<path d="M639.866 14.8801C635.295 14.8801 632.248 12.0001 632.248 7.92015C632.248 3.84016 635.549 0.960165 639.866 0.960165C642.405 0.960165 644.436 1.92016 645.706 3.36016L643.166 5.76016C643.166 5.76016 641.135 4.08016 640.119 4.08016C637.834 4.08016 636.057 5.76016 636.057 7.92015C636.057 10.0801 637.834 11.7601 640.119 11.7601C641.389 11.7601 642.405 11.2801 643.166 10.3201L645.706 12.2401C644.436 13.9201 642.405 14.8801 639.866 14.8801Z" fill="white"/>
<path fill-rule="evenodd" clip-rule="evenodd" d="M646.974 7.92015C646.974 12.0001 650.275 14.8801 654.845 14.8801C659.416 14.8801 662.717 12.0001 662.717 7.92015C662.717 3.84016 659.416 0.960165 654.845 0.960165C650.275 0.960165 646.974 3.84016 646.974 7.92015ZM651.037 7.92015C651.037 5.76016 652.56 4.08016 654.845 4.08016C657.385 4.08016 658.908 5.76016 658.908 7.92015C658.908 10.0801 657.131 11.7601 654.845 11.7601C652.56 11.7601 651.037 10.0801 651.037 7.92015Z" fill="white"/>
<path d="M665.257 1.20021H668.304L673.129 8.88019L677.953 1.20021H681V14.6402H677.699V7.68019L674.144 13.2002H672.367L668.812 7.92019V14.6402H665.257V1.20021Z" fill="white"/>
<path d="M101.566 81.5996C101.566 81.5178 101.568 81.4365 101.57 81.3555C101.699 85.795 105.459 89.0396 110.199 89.0396C112.739 89.0396 114.77 88.3195 116.293 86.8795L115.278 85.9196C114.008 87.3596 112.231 87.8396 110.453 87.8396C106.645 87.8396 103.598 85.1996 103.598 81.3596C103.598 77.5196 106.391 74.8796 110.453 74.8796C112.231 74.8796 114.008 75.5996 115.278 76.7996L116.293 75.8396C114.77 74.3996 112.485 73.6796 110.199 73.6796C105.212 73.6796 101.694 76.9202 101.57 81.3555C101.568 81.2772 101.566 81.1986 101.566 81.1196V81.5996Z" fill="white"/>
<path fill-rule="evenodd" clip-rule="evenodd" d="M127.212 84.2396L131.02 89.2795V89.0396H132.798L128.735 83.7596C131.274 83.0396 132.544 81.3596 132.544 78.9596C132.544 75.5996 130.005 73.6796 125.942 73.6796H119.848V89.0396H121.625V84.2396H127.212ZM125.942 75.3596C129.243 75.3596 131.02 76.7996 131.02 79.1996C131.02 81.5996 129.243 83.0396 125.942 83.0396H121.625V75.3596H125.942Z" fill="white"/>
<path d="M142.192 83.9996V89.2796H140.415V83.9996L133.813 73.9196H135.591L141.177 82.5596L146.763 73.9196H148.54L141.938 83.9996H142.192Z" fill="white"/>
<path fill-rule="evenodd" clip-rule="evenodd" d="M157.426 84.4796C161.489 84.4796 164.028 82.5596 164.028 79.1996C164.028 75.8396 161.489 73.9196 157.426 73.9196H151.333V89.2796H153.11V84.4796H157.426ZM157.173 75.3596C160.473 75.3596 162.251 76.7996 162.251 79.1996C162.251 81.5996 160.473 83.0396 157.173 83.0396H152.856V75.3596H157.173Z" fill="white"/>
<path d="M170.123 75.3596H164.537V73.9196H177.74V75.3596H171.9V89.2796H170.123V75.3596Z" fill="white"/>
<path fill-rule="evenodd" clip-rule="evenodd" d="M187.643 73.6796C182.565 73.6796 179.01 77.0396 179.01 81.5996C179.01 86.1596 182.565 89.5195 187.643 89.5195C192.721 89.5195 196.276 86.1596 196.276 81.5996C196.276 77.0396 192.721 73.6796 187.643 73.6796ZM187.643 75.1196C191.705 75.1196 194.499 77.9996 194.499 81.5996C194.499 85.4396 191.452 88.0796 187.643 88.0796C183.834 88.0796 180.787 85.4396 180.787 81.5996C180.787 77.7596 183.58 75.1196 187.643 75.1196Z" fill="white"/>
<path d="M198.815 81.5996C198.815 81.5178 198.816 81.4365 198.818 81.3555C198.947 85.795 202.707 89.0396 207.448 89.0396C209.987 89.0396 212.018 88.3195 213.542 86.8795L212.526 85.9196C211.256 87.3596 209.479 87.8396 207.702 87.8396C203.893 87.8396 200.846 85.1996 200.846 81.3596C200.846 77.5196 203.639 74.8796 207.702 74.8796C209.479 74.8796 211.256 75.5996 212.526 76.7996L213.542 75.8396C212.018 74.3996 209.733 73.6796 207.448 73.6796C202.46 73.6796 198.943 76.9202 198.818 81.3555C198.816 81.2772 198.815 81.1986 198.815 81.1196V81.5996Z" fill="white"/>
<path d="M216.843 73.9196V82.7996H217.351C217.351 87.1196 219.89 89.5196 223.953 89.5196C228.015 89.5196 230.555 87.1196 230.555 82.7996V73.9196H228.777V82.7996C228.777 86.3996 227 88.0796 223.699 88.0796C220.398 88.0796 218.621 86.3996 218.621 82.7996V73.9196H216.843Z" fill="white"/>
<path fill-rule="evenodd" clip-rule="evenodd" d="M246.805 89.2795L242.996 84.2396H237.41V89.0396H235.633V73.6796H241.727C245.789 73.6796 248.328 75.5996 248.328 78.9596C248.328 81.3596 247.059 83.0396 244.52 83.7596L248.582 89.0396H246.805V89.2795ZM246.805 79.1996C246.805 76.7996 245.028 75.3596 241.727 75.3596H237.41V83.0396H241.727C245.028 83.0396 246.805 81.5996 246.805 79.1996Z" fill="white"/>
<path fill-rule="evenodd" clip-rule="evenodd" d="M260.009 84.2396L263.818 89.2795V89.0396H265.595L261.533 83.7596C264.072 83.0396 265.342 81.3596 265.342 78.9596C265.342 75.5996 262.802 73.6796 258.74 73.6796H252.646V89.0396H254.423V84.2396H260.009ZM258.74 75.3596C262.041 75.3596 263.818 76.7996 263.818 79.1996C263.818 81.5996 262.041 83.0396 258.74 83.0396H254.423V75.3596H258.74Z" fill="white"/>
<path d="M281.084 87.8396V88.0796H271.435V82.3196H279.814V80.8796H271.435V75.3596H280.83V73.9196H269.657V89.2796H281.084V88.0796H281.337L281.084 87.8396Z" fill="white"/>
<path d="M298.857 89.2796V73.9196H297.08V86.3996L286.669 73.9196H285.146V89.2796H286.923V76.7996L297.334 89.2796H298.857Z" fill="white"/>
<path d="M302.921 81.5996C302.921 81.5178 302.922 81.4365 302.925 81.3555C303.054 85.795 306.814 89.0396 311.554 89.0396C314.094 89.0396 316.125 88.3195 317.648 86.8795L316.633 85.9196C315.363 87.3596 313.586 87.8396 311.808 87.8396C308 87.8396 304.953 85.1996 304.953 81.3596C304.953 77.5196 307.746 74.8796 311.808 74.8796C313.586 74.8796 315.363 75.5996 316.633 76.7996L317.648 75.8396C316.125 74.3996 313.84 73.6796 311.554 73.6796C306.567 73.6796 303.049 76.9202 302.925 81.3555L302.923 81.2926L302.922 81.22L302.921 81.1196V81.5996Z" fill="white"/>
<path d="M326.534 89.2796V83.9996H326.28L332.882 73.9196H331.105L325.518 82.5596L319.932 73.9196H318.155L324.757 83.9996V89.2796H326.534Z" fill="white"/>
<path d="M357.258 73.9196V89.2796H355.734L345.324 76.7996V89.2796H343.547V73.9196H345.07L355.481 86.3996V73.9196H357.258Z" fill="white"/>
<path d="M374.271 88.0796V87.8396L374.525 88.0796H374.271Z" fill="white"/>
<path d="M364.623 88.0796H374.271V89.2796H362.845V73.9196H374.018V75.3596H364.623V80.8796H373.002V82.3196H364.623V88.0796Z" fill="white"/>
<path d="M400.679 73.9196L395.092 89.2796H393.315L388.491 76.0796L383.666 89.2796H381.889L376.303 73.9196H378.08L382.904 87.1196L387.729 73.9196H389.252L394.077 87.3596L398.901 73.9196H400.679Z" fill="white"/>
<path d="M402.964 86.1596L402.202 87.3596V87.5996C403.472 88.7995 405.757 89.5195 408.296 89.5195C412.359 89.5195 414.39 87.3596 414.39 85.1995C414.39 82.2706 411.53 81.6391 408.846 81.0462C406.471 80.5216 404.233 80.0274 404.233 77.9996C404.233 76.3196 405.503 75.1196 408.55 75.1196C410.073 75.1196 411.597 75.3596 413.12 76.3196L413.628 75.1196C412.359 74.1596 410.327 73.6796 408.55 73.6796C404.233 73.6796 402.456 75.8396 402.456 77.9996C402.456 81.0863 405.373 81.7607 408.08 82.3867C410.425 82.9288 412.613 83.4346 412.613 85.4396C412.613 86.8795 411.343 88.0796 408.296 88.0796C406.265 88.0796 402.964 86.1596 402.964 86.1596Z" fill="white"/>
<path fill-rule="evenodd" clip-rule="evenodd" d="M438.002 89.5196L435.717 87.3596C434.448 88.7996 432.416 89.5196 430.385 89.5196C427.084 89.5196 424.799 87.8396 424.799 85.6796C424.799 83.7596 425.814 82.5596 428.861 80.8796C427.338 79.4396 426.83 78.4796 426.83 77.2796C426.83 75.3596 428.354 73.9196 430.893 73.9196C433.178 73.9196 434.701 75.1196 434.701 77.0396C434.701 78.4796 433.686 79.6796 431.147 81.1196L435.717 85.4396C435.717 85.4396 436.479 83.5196 436.733 82.5596L438.002 83.0396C437.748 84.4796 437.241 85.6796 436.479 86.6396L438.764 88.7996L438.002 89.5196ZM434.701 86.3996L429.877 81.5996C427.338 83.0396 426.576 83.9996 426.576 85.4396C426.576 87.1196 428.1 88.3196 430.639 88.3196C432.416 88.3196 433.94 87.8396 434.955 86.6396L434.701 86.3996ZM428.354 77.0396C428.354 77.0396 428.608 78.4796 430.131 79.9196C432.416 78.7196 433.178 77.7596 433.178 76.7996C433.178 75.8396 432.416 74.8796 430.893 74.8796C429.369 74.8796 428.354 75.8396 428.354 77.0396Z" fill="white"/>
<path d="M447.144 75.3596H452.73V89.2796H454.507V75.3596H460.347V73.9196H447.144V75.3596Z" fill="white"/>
<path d="M474.821 87.8396V88.0796H465.172V82.3196H473.551V80.8796H465.172V75.3596H474.567V73.9196H463.395V89.2796H474.821V88.0796H475.075L474.821 87.8396Z" fill="white"/>
<path d="M477.363 81.3554C477.361 81.4364 477.36 81.5178 477.36 81.5996V81.1196C477.36 81.1986 477.361 81.2771 477.363 81.3554Z" fill="white"/>
<path d="M477.363 81.3554C477.488 76.9201 481.006 73.6796 485.993 73.6796C488.278 73.6796 490.563 74.3996 492.087 75.8396L491.071 76.7996C489.802 75.5996 488.024 74.8796 486.247 74.8796C482.184 74.8796 479.391 77.5196 479.391 81.3596C479.391 85.1996 482.438 87.8396 486.247 87.8396C488.024 87.8396 489.802 87.3596 491.071 85.9196L492.087 86.8795C490.563 88.3195 488.532 89.0396 485.993 89.0396C481.252 89.0396 477.492 85.7948 477.363 81.3554Z" fill="white"/>
<path d="M509.353 73.9196V89.2796H507.575V82.0796H497.419V89.2796H495.641V73.9196H497.419V80.8796H507.575V73.9196H509.353Z" fill="white"/>
<path d="M528.397 89.2796V73.9196H526.62V86.3996L516.209 73.9196H514.686V89.2796H516.463V76.7996L526.873 89.2796H528.397Z" fill="white"/>
<path fill-rule="evenodd" clip-rule="evenodd" d="M532.46 81.5996C532.46 77.0396 536.014 73.6796 541.093 73.6796C546.171 73.6796 549.726 77.0396 549.726 81.5996C549.726 86.1596 546.171 89.5195 541.093 89.5195C536.014 89.5195 532.46 86.1596 532.46 81.5996ZM547.948 81.5996C547.948 77.9996 545.155 75.1196 541.093 75.1196C537.03 75.1196 534.237 77.7596 534.237 81.5996C534.237 85.4396 537.284 88.0796 541.093 88.0796C544.901 88.0796 547.948 85.4396 547.948 81.5996Z" fill="white"/>
<path d="M555.312 73.9196H553.535V89.2796H564.453V87.8396H555.312V73.9196Z" fill="white"/>
<path fill-rule="evenodd" clip-rule="evenodd" d="M565.723 81.5996C565.723 77.0396 569.278 73.6796 574.357 73.6796C579.435 73.6796 582.99 77.0396 582.99 81.5996C582.99 86.1596 579.435 89.5195 574.357 89.5195C569.278 89.5195 565.723 86.1596 565.723 81.5996ZM581.212 81.5996C581.212 77.9996 578.419 75.1196 574.357 75.1196C570.294 75.1196 567.501 77.7596 567.501 81.5996C567.501 85.4396 570.548 88.0796 574.357 88.0796C578.165 88.0796 581.212 85.4396 581.212 81.5996Z" fill="white"/>
<path d="M600.001 81.5996H598.223V86.6395C596.954 87.5995 595.43 87.8396 593.907 87.8396C590.098 87.8396 587.051 85.1996 587.051 81.3596C587.051 77.5196 590.098 74.8796 594.161 74.8796C595.938 74.8796 597.716 75.5996 598.985 76.7996L600.001 75.8396C598.477 74.3996 596.446 73.6796 593.907 73.6796C588.828 73.6796 585.274 77.0396 585.274 81.5996C585.274 86.1596 588.828 89.5195 593.907 89.5195C596.192 89.5195 598.477 88.7995 600.001 87.5996V81.5996Z" fill="white"/>
<path d="M610.411 89.2796H608.634V83.9996L602.032 73.9196H603.81L609.396 82.5596L614.982 73.9196H616.759L610.157 83.9996H610.411V89.2796Z" fill="white"/>
<path d="M57.6387 56.4001C56.1152 62.4001 45.9586 60.0001 41.3881 58.8001H41.1342C40.8803 58.5601 40.1185 58.5601 40.1185 58.5601L43.1655 46.8001C43.6734 47.0401 44.1812 47.0401 44.689 47.0401C44.9806 47.1126 45.2899 47.1878 45.6132 47.2664C50.6391 48.488 59.0701 50.5373 57.6387 56.4001Z" fill="white"/>
<path d="M45.7961 41.7831L45.7047 41.7601V41.5201H44.689L47.4821 30.9601C47.9899 31.2001 48.2438 31.2001 48.7517 31.2001C52.8143 31.9201 60.9396 33.6001 59.4161 39.3601C57.9047 44.8363 49.6458 42.7538 45.7961 41.7831Z" fill="white"/>
<path fill-rule="evenodd" clip-rule="evenodd" d="M0 70.08L21.8367 90H94.2024V0.960165H0V70.08ZM70.5883 39.3601C71.604 32.8801 66.2718 29.5201 59.1622 27.1201H59.4161L61.7013 18.2401L56.1152 16.8001L53.8299 25.4401C53.1952 25.3201 52.6238 25.2001 52.0525 25.0801C51.4812 24.9601 50.9099 24.8401 50.2751 24.7201H49.2595L51.5447 16.0801L45.9586 14.6401L43.6734 23.5201H42.9116C41.896 23.2801 40.1185 22.8001 40.1185 22.8001L32.2472 20.8801L30.7237 26.6401L34.7863 27.6001C37.0716 28.0801 37.3255 30.7201 37.3255 30.7201L34.7863 40.8001L30.9776 54.7201C30.7237 55.2001 29.962 56.4001 28.4385 55.9201L24.3758 54.9601L21.5828 60.9601L28.9463 62.6401C29.4906 62.6401 29.962 62.7779 30.3995 62.9059C30.7784 63.0167 31.1319 63.1201 31.4854 63.1201C31.9933 63.3601 33.0089 63.6001 33.0089 63.6001L30.7237 72.48L36.3098 73.92L38.5951 65.04C40.1185 65.5201 41.642 66 43.1655 66.24L40.8803 74.88L46.4664 76.32L48.7517 67.44C58.4004 69.12 65.51 68.4 68.557 60.2401C71.0962 53.5201 68.557 49.6801 63.4787 47.2801C67.0335 46.3201 69.8266 44.1601 70.5883 39.3601Z" fill="white"/>
</svg>
