<svg width="477" height="97" viewBox="0 0 477 97" fill="none" xmlns="http://www.w3.org/2000/svg">
<g clip-path="url(#clip0_5_1722)">
<path d="M12.5 12.3999H22.9C32.4 12.3999 36.5 15.3999 36.5 21.4999C36.5 26.7999 32.3 30.3999 24 30.3999H12.6V12.3999H12.5ZM0 72.0999H25.4C38.7 72.0999 52.1 67.2999 52.1 51.9999C52.1 42.8999 45.7 35.9999 36.9 34.9999V34.7999C44.2 32.5999 49.1 27.2999 49.1 19.3999C49.1 6.59993 38.2 1.69995 27.5 1.69995H0V72.0999ZM12.5 41.0999H24.5C34.7 41.0999 39.4 43.6999 39.4 51.0999C39.4 60.3999 30.4 61.4999 24 61.4999H12.5V41.0999Z" fill="white"/>
<path d="M60.2002 0H72.1002V72.1H60.2002V0Z" fill="white"/>
<path d="M92.1002 48.2001C92.1002 40.7001 97.4002 33.9001 106.1 33.9001C114.9 33.9001 120.1 40.8001 120.1 48.2001C120.1 55.7001 114.8 62.5001 106.1 62.5001C97.4002 62.6001 92.1002 55.7001 92.1002 48.2001ZM80.2002 48.2001C80.2002 63.2001 91.7002 73.3001 106.2 73.3001C120.6 73.3001 132.2 63.2001 132.2 48.2001C132.2 33.2001 120.7 23.1001 106.2 23.1001C91.7002 23.2001 80.2002 33.2001 80.2002 48.2001Z" fill="white"/>
<path d="M149.5 48.2001C149.5 40.7001 154.8 33.9001 163.5 33.9001C172.3 33.9001 177.5 40.8001 177.5 48.2001C177.5 55.7001 172.2 62.5001 163.5 62.5001C154.7 62.6001 149.5 55.7001 149.5 48.2001ZM137.5 48.2001C137.5 63.2001 149 73.3001 163.5 73.3001C177.9 73.3001 189.5 63.2001 189.5 48.2001C189.5 33.2001 178 23.1001 163.5 23.1001C149.1 23.2001 137.5 33.2001 137.5 48.2001Z" fill="white"/>
<path d="M196.8 24.3999H208.1V31.8999H208.3C210.4 27.3999 215 23.2 222.9 23.2C230.3 23.2 235.3 26.0999 237.8 32.0999C241.3 25.9999 246.4 23.2 253.5 23.2C266.2 23.2 270.7 32.3 270.7 43.7V72.2H258.8V45.0999C258.8 39.0999 257 33.9999 249.9 33.9999C242.4 33.9999 239.6 40.1999 239.6 46.2999V72.2H227.7V43.7C227.7 37.8 225.3 33.9 219.5 33.9C211.6 33.9 208.6 39.6999 208.6 45.9999V72.0999H196.7V24.3999H196.8Z" fill="white"/>
<path d="M320.1 48.2C320.1 55.7 314.8 62.5 306.1 62.5C297.3 62.5 292.1 55.6 292.1 48.2C292.1 40.7 297.4 33.9 306.1 33.9C314.8 33.9 320.1 40.8 320.1 48.2ZM280.5 72.1H291.8V64.9H292C295.5 70.7 301.8 73.3 308.4 73.3C323.1 73.3 332 62.4 332 48.2C332 34.1 322.5 23.1 308.9 23.1C299.9 23.1 295.2 27.3 292.7 30.4H292.4V0H280.5V72.1Z" fill="white"/>
<path d="M349.4 43.5001C350.3 36.6001 354.7 32.2001 361.7 32.2001C369.2 32.2001 373.7 36.6001 373.8 43.5001H349.4ZM385.8 52.4001V49.1001C385.8 32.5001 376.7 23.1001 363.4 23.1001C349 23.1001 337.4 33.2001 337.4 48.2001C337.4 63.2001 348.9 73.3001 363.4 73.3001C371 73.3001 378 70.6001 383.6 63.7001L375 57.2001C372 60.9001 368.1 63.7001 362.2 63.7001C355.5 63.7001 350.2 59.4001 349.4 52.4001H385.8Z" fill="white"/>
<path d="M393.6 24.3999H405.5V31.9999H405.7C408.3 26.4999 413.6 23.2 419.8 23.2C421.3 23.2 422.7 23.4999 424.1 23.8999V35.4C422.1 34.9 420.2 34.4999 418.3 34.4999C407.1 34.4999 405.5 43.9999 405.5 46.4999V72.0999H393.6V24.3999Z" fill="white"/>
<path d="M450.9 33.9C459.6 33.9 465 39.7 465 47.9C465 55.9 459.6 61.9 450.8 61.9C442.7 61.9 436.8 55.5999 436.8 48.0999C436.8 39.6999 442.5 33.9 450.9 33.9ZM465 24.3999V31.5999H464.8C461.3 25.7999 455 23.2 448.4 23.2C433.7 23.2 424.8 34.1999 424.8 48.2999C424.8 61.7999 434.3 72.7999 448.6 72.7999C454.6 72.7999 460.7 70.4999 464.2 65.7999H464.4V69.2999C464.4 78.7999 460.8 85.2999 449.3 85.2999C442.6 85.2999 437.7 82.8 432.9 78.4L425.7 88.2C432.5 94.2 440.5 96.0999 449.4 96.0999C468 96.0999 476.4 85.2 476.4 67.9V24.3999H465Z" fill="white"/>
</g>
<defs>
<clipPath id="clip0_5_1722">
<rect width="476.4" height="96.1" fill="white"/>
</clipPath>
</defs>
</svg>
