<svg width="377" height="84" viewBox="0 0 377 84" fill="none" xmlns="http://www.w3.org/2000/svg">
<g clip-path="url(#clip0_5_1719)">
<path d="M47.7814 25.032H45.7342C44.5776 15.492 39.591 2.055 29.4045 2.055C21.0549 2.055 19.218 10.065 19.218 22.923V64.818C19.218 72.3015 20.5833 81.945 28.8262 81.945C39.4859 81.945 45.629 70.5615 46.5738 58.968H48.621V82.3665H46.5738C46.5738 80.5215 45.8919 78.2565 43.9483 78.2565C41.4279 78.2565 36.8589 84 28.8788 84C11.3415 84 0 64.29 0 42C0 19.761 11.3415 0 28.8262 0C37.3846 0 40.5868 6.429 43.2138 6.429C44.9456 6.429 45.5239 4.269 45.7342 1.6335H47.7814V25.032ZM54.659 80.364H60.3816V3.6885H54.659V1.581H83.2254V3.6885H77.5028V80.364H83.2254V82.419H54.6575L54.659 80.364ZM99.6061 80.364H106.904V3.6885C93.9872 5.0595 90.3118 16.5465 89.735 27.9285H87.6863V1.5825H143.239V27.8775H141.243C140.666 16.4955 136.991 5.061 124.075 3.6375V80.313H131.372V82.368H99.6046V80.3655L99.6061 80.364ZM159.306 80.364H165.344V45.5835L148.543 3.6885H144.447V1.581H171.068V3.6885H166.29L180.571 40.314L192.491 11.751C193.646 9.117 194.433 7.272 194.433 6.0075C194.433 3.6885 191.231 3.6885 189.182 3.6885V1.581H203.359V3.6885C198.424 3.6885 197.845 4.1625 195.116 11.0145L182.515 42.21V80.31H188.553V82.365H159.253V80.364H159.306Z" fill="white"/>
<path d="M200.682 80.3641C204.567 80.3641 206.511 78.9946 207.403 75.5686L227.776 1.58105H233.288L254.345 80.3116H259.385V82.3666H231.557V80.3116H237.069L231.241 58.0216H214.754L212.023 68.5591C210.763 73.0396 209.871 76.5691 209.871 77.6236C209.871 80.1526 214.333 80.2591 215.909 80.2591V82.3141H200.682V80.3641ZM222.893 27.6661H222.63L215.174 56.0176H230.612L222.893 27.6661ZM262.903 68.4016H276.029V82.4191H262.903V68.4016ZM283.486 80.3641C288.736 80.3641 289.524 79.4686 289.524 69.5611V3.68855H284.063V1.58105H307.849L320.556 51.7486H320.766L333.473 1.58105H356.575V3.68855H351.063V80.3641H356.575V82.4191H328.432V80.3641H334.628V5.74356H334.418L315.568 82.4191H311.787L292.516 5.05955H292.306V69.5596C292.306 79.4146 293.358 80.3641 298.503 80.3641V82.4191H283.538V80.3641H283.486ZM363.873 68.4016H377V82.4191H363.873V68.4016Z" fill="white"/>
</g>
<defs>
<clipPath id="clip0_5_1719">
<rect width="377" height="84" fill="white"/>
</clipPath>
</defs>
</svg>
