<svg width="601" height="96" viewBox="0 0 601 96" fill="none" xmlns="http://www.w3.org/2000/svg">
<path d="M32.3 19.9C28 19.9 24.6 21.7 22.3 25.2C19.9 28.7 18.7 33.6 18.7 39.8C18.7 52.7 23.6 59.2 33.4 59.2C36.4 59.2 39.2 58.7 42.1 58C44.8 57.2 47.7 56.2 50.5 55V70.4C44.9 72.8 38.5 74 31.5 74C21.3 74 13.6 71.1 8.3 65.2C3 59.3 0 50.8 0 39.7C0 32.7 1.4 26.6 4 21.3C6.6 16 10.4 12 15.2 9.10001C20 6.20001 26 4.79999 32.5 4.79999C39.8 4.79999 46.6 6.3 53.3 9.5L47.7 23.8C45.3 22.6 42.7 21.7 40.3 20.9C37.7 20.2 35 19.9 32.3 19.9ZM112 47C112 55.5 109.7 62.2 105.2 66.9C100.6 71.6 94.3 74 86.1 74C78.2 74 72 71.6 67.3 66.7C62.6 61.8 60.3 55.3 60.3 46.9C60.3 38.4 62.6 31.9 67.1 27.1C71.7 22.4 78.2 20 86.4 20C91.6 20 96 21.1 99.9 23.2C103.9 25.3 106.9 28.5 109 32.6C111 36.8 112 41.5 112 47ZM78.3 47C78.3 51.4 78.9 54.9 80.1 57.2C81.3 59.5 83.3 60.7 86.2 60.7C88.9 60.7 90.9 59.5 92.1 57.2C93.3 54.8 93.8 51.4 93.8 47C93.8 42.6 93.2 39.3 92.1 37C90.9 34.7 88.9 33.7 86.2 33.7C83.5 33.7 81.5 34.8 80.3 37C78.9 39.1 78.3 42.4 78.3 47ZM140.3 73.1H122.4V21.1H140.3V73.1ZM121.9 8.10001C121.9 5.40001 122.7 3.4 124.2 2C125.7 0.6 128.2 0 131.5 0C134.8 0 137.3 0.6 138.8 2C140.3 3.4 141.1 5.29999 141.1 7.89999C141.1 13.2 137.9 15.8 131.5 15.8C125.1 16 121.9 13.4 121.9 8.10001ZM185.7 73.1V44.7C185.7 41.2 185.2 38.6 184.2 37C183.3 35.2 181.6 34.3 179.5 34.3C176.5 34.3 174.3 35.5 173 37.9C171.6 40.3 171 44.4 171 50.4V73.2H153.1V21.2H166.6L168.9 27.6H170C171.5 25.2 173.6 23.3 176.4 22.1C179.1 20.9 182.2 20.3 185.8 20.3C191.6 20.3 196 22 199.2 25.3C202.4 28.6 204.1 33.4 204.1 39.4V73.3H185.9L185.7 73.1ZM256.1 57.2C256.1 62.8 254.3 66.9 250.5 69.8C246.7 72.7 241.2 74.1 234.1 74.1C230.3 74.1 227 73.9 224.1 73.5C221.2 73 218.3 72.3 215.4 71.2V56.8C218.1 58 221.2 59.1 224.5 59.8C227.8 60.6 230.7 61 233.5 61C237.5 61 239.3 60.1 239.3 58.3C239.3 57.4 238.7 56.6 237.6 55.9C236.5 55.2 233.3 53.8 228.2 51.6C223.5 49.6 220.1 47.5 218.2 44.9C216.4 42.3 215.3 39.3 215.3 35.3C215.3 30.4 217.1 26.6 220.9 24.1C224.7 21.4 229.9 20 236.7 20C240.2 20 243.4 20.5 246.3 21.2C249.3 22 252.5 23 255.7 24.4L250.8 35.9C248.4 34.8 245.9 33.9 243.2 33.2C240.5 32.4 238.3 32 236.7 32C233.8 32 232.3 32.8 232.3 34.1C232.3 35 232.8 35.8 233.8 36.4C234.8 37 237.8 38.2 242.8 40.2C246.4 41.7 249.2 43.2 250.9 44.6C252.7 46 254.1 47.8 254.9 49.8C255.6 52 256.1 54.3 256.1 57.2ZM297.2 74C294.6 74 292.2 73.5 290.1 72.8C288 71.9 286 70.4 283.9 68.1H283.1C283.7 71.7 283.9 74 283.9 74.9V95.7H266V21.1H280.6L283.2 27.8H284C287.3 22.8 291.9 20.2 297.8 20.2C303.6 20.2 308.1 22.6 311.3 27.3C314.6 32 316.2 38.7 316.2 46.9C316.2 55.3 314.5 61.9 311 66.8C307.6 71.6 303 74 297.2 74ZM291.2 34.2C288.6 34.2 286.6 35.1 285.6 37.1C284.5 38.9 283.9 41.8 283.9 45.5V46.9C283.9 51.3 284.5 54.6 285.7 56.6C286.9 58.6 288.7 59.6 291.3 59.6C293.6 59.6 295.3 58.7 296.3 56.7C297.4 54.7 297.8 51.4 297.8 46.8C297.8 42.4 297.3 39.2 296.3 37.2C295.3 35.2 293.6 34.2 291.2 34.2ZM351.6 74C342.9 74 336.3 71.7 331.4 67.2C326.7 62.6 324.3 56 324.3 47.4C324.3 38.6 326.6 31.9 331 27.2C335.4 22.5 341.8 20.1 350 20.1C357.9 20.1 363.8 22.1 368.1 26.2C372.4 30.3 374.5 36.1 374.5 43.8V51.9H342.4C342.6 54.8 343.6 57.1 345.6 58.7C347.6 60.4 350.3 61.1 353.8 61.1C357 61.1 359.9 60.8 362.5 60.2C365.2 59.6 368 58.5 371.2 57.2V70.1C368.3 71.5 365.4 72.5 362.5 73.1C359.4 73.7 355.7 74 351.6 74ZM350.6 32.4C348.5 32.4 346.6 33 345.3 34.4C343.9 35.8 343 37.7 342.9 40.6H358.4C358.4 38 357.6 36 356.3 34.5C354.7 33.2 352.8 32.4 350.6 32.4ZM418.5 73.1L415 66.3H414.7C412.3 69.3 409.8 71.3 407.3 72.4C404.7 73.5 401.5 74.1 397.6 74.1C392.7 74.1 388.8 72.6 386.1 69.7C383.2 66.8 381.8 62.6 381.8 57.2C381.8 51.7 383.8 47.5 387.6 44.9C391.4 42.2 397 40.6 404.3 40.3L413 40V39.2C413 34.9 410.9 32.8 406.6 32.8C402.8 32.8 397.9 34 392.2 36.6L387 24.7C393.1 21.5 400.7 20 409.9 20C416.6 20 421.8 21.7 425.4 25C429 28.3 430.9 32.9 430.9 38.8V72.8H418.6L418.5 73.1ZM405.3 61.3C407.4 61.3 409.3 60.5 410.9 59.2C412.4 57.8 413.2 56 413.2 53.9V49.8L409.1 50C403.2 50.2 400.3 52.4 400.3 56.5C400.1 59.8 401.8 61.3 405.3 61.3ZM460.6 43.8C462.7 40.3 464.6 37.7 466.2 35.7L477.9 21H498L479.9 43.2L499 73.1H478.5L467.1 54.4L461.3 58.8V72.9H443.2V1.5H461.3V29.6C461.3 34.5 461 39.2 460.2 43.7H460.6V43.8ZM530.3 74C521.6 74 515 71.7 510.1 67.2C505.4 62.6 503 56 503 47.4C503 38.6 505.3 31.9 509.7 27.2C514.1 22.5 520.5 20.1 528.7 20.1C536.6 20.1 542.5 22.1 546.8 26.2C551.1 30.3 553.2 36.1 553.2 43.8V51.9H521C521.2 54.8 522.2 57.1 524.2 58.7C526.2 60.4 528.9 61.1 532.4 61.1C535.6 61.1 538.5 60.8 541.1 60.2C543.8 59.6 546.6 58.5 549.8 57.2V70.1C546.9 71.5 544 72.5 541.1 73.1C538.1 73.7 534.4 74 530.3 74ZM529.2 32.4C527.1 32.4 525.2 33 523.9 34.4C522.5 35.8 521.6 37.7 521.5 40.6H537C537 38 536.2 36 534.9 34.5C533.3 33.2 531.5 32.4 529.2 32.4ZM594.6 20.1C596.1 20.1 597.6 20.3 599 20.4L600.1 20.6L598.4 37.5C596.9 37.2 594.9 36.9 592.3 36.9C588.3 36.9 585.5 37.8 583.8 39.6C582 41.4 581.1 44 581.1 47.3V72.8H563.2V20.8H576.6L579.3 29.2H580.2C581.7 26.5 583.8 24.2 586.4 22.5C589.3 21 592 20.1 594.6 20.1Z" fill="white"/>
</svg>
