<svg width="438" height="124" viewBox="0 0 438 124" fill="none" xmlns="http://www.w3.org/2000/svg">
<g clip-path="url(#clip0_5_1559)">
<path d="M322.981 93.9245C308.024 93.9245 298.73 85.284 298.73 71.3565C298.73 56.9021 307.306 47.9093 321.116 47.9093H322.274C324.006 47.9093 326.391 47.9656 329.649 48.3714V30.9241H339.404V92.352C339.404 92.352 330.136 93.9245 322.981 93.9245ZM322.893 55.5691C313.443 55.5691 308.849 60.6559 308.849 71.1142C308.849 80.5043 314.393 86.3408 323.3 86.3408C325.012 86.3408 326.973 86.2281 329.647 85.9998V56.1947C326.976 55.7663 324.823 55.5691 322.893 55.5691ZM189.362 92.5154L163.012 46.6552L163.003 92.5154H153.819V34.4581H166.677L193.027 79.9097L193.016 34.4581H202.321V92.5154H189.362ZM273.297 93.4088C268.861 93.4088 264.235 92.9128 258.727 91.856L258.131 91.7433V83.6325L259.002 83.8185C263.859 84.8528 268.053 85.7349 272.249 85.7349C275.637 85.7349 283.529 85.2051 283.529 80.231C283.529 76.0601 278.076 75.0117 273.696 74.1747L273.419 74.1183C272.599 73.9662 271.828 73.8112 271.178 73.6477C264.752 71.985 257.897 69.4853 257.897 60.8983C257.897 52.5226 264.543 47.7233 276.134 47.7233C281.698 47.7233 285.736 48.3151 288.983 48.7998L290.56 49.0309V56.9021L289.721 56.7499C286.047 56.0763 281.741 55.3831 277.601 55.3831C272.998 55.3831 267.535 56.2426 267.535 60.3262C267.535 63.7164 272.006 64.6859 277.183 65.8103C284.422 67.3716 293.397 69.3331 293.397 79.1854C293.397 88.2233 286.078 93.4088 273.297 93.4088ZM366.789 93.4088C356.692 93.4088 347.342 91.6333 347.342 78.7768C347.342 64.7845 361.801 64.7845 370.446 64.7845C371.305 64.7845 375.368 64.9733 376.614 65.0269C376.603 57.1783 376.504 55.307 365.091 55.307C360.567 55.307 355.542 56.1975 351.106 56.9923L350.258 57.1444V49.3944L350.829 49.2733C355.972 48.2305 360.931 47.7233 365.987 47.7233C377.047 47.7233 386.417 48.8336 386.417 62.5187V92.3633L385.745 92.4393C378.084 93.2961 372 93.4088 366.789 93.4088ZM370.203 71.7088C361.867 71.7088 356.701 72.9319 356.701 79.0192C356.701 86.0646 363.291 86.648 369.474 86.648C371.779 86.648 375.931 86.3521 377.199 86.2619V71.9512C375.413 71.8751 370.765 71.7088 370.203 71.7088ZM229.915 93.4088C219.805 93.4088 210.457 91.6333 210.457 78.7768C210.457 64.7845 224.917 64.7845 233.558 64.7845C234.42 64.7845 238.492 64.9733 239.741 65.0269C239.729 57.1783 239.619 55.307 228.206 55.307C223.679 55.307 218.655 56.1975 214.218 56.9923L213.37 57.1444V49.3944L213.955 49.2733C218.938 48.2457 224.013 47.7263 229.102 47.7233C240.159 47.7233 249.532 48.8336 249.532 62.5187V92.3633L248.857 92.4393C241.199 93.2961 235.115 93.4088 229.915 93.4088ZM233.315 71.7088C224.982 71.7088 219.827 72.9319 219.827 79.0192C219.827 86.0646 226.406 86.648 232.589 86.648C234.906 86.648 239.057 86.3521 240.326 86.2619V71.9512C238.526 71.8751 233.877 71.7088 233.315 71.7088Z" fill="white"/>
<mask id="mask0_5_1559" style="mask-type:luminance" maskUnits="userSpaceOnUse" x="392" y="45" width="44" height="68">
<path d="M392.787 45.0911H435.251V112.727H392.787V45.0911Z" fill="#fff"/>
</mask>
<g mask="url(#mask0_5_1559)">
<path d="M425.262 112.243V93.1974C421.455 93.7273 419.435 93.7273 417.801 93.7273C413.936 93.7273 409.643 92.8903 406.32 91.4924C398.88 88.4065 394.443 80.572 394.443 70.5195C394.443 65.5032 395.67 56.33 403.87 51.3869C407.987 48.9351 412.845 47.8867 420.153 47.8867C422.766 47.8867 426.299 48.084 429.709 48.2813L435.251 48.5687V107.829L425.262 112.243ZM419.423 55.5494C409.511 55.5465 404.486 60.5911 404.486 70.5195C404.486 83.3028 411.98 85.9885 418.282 85.9885C419.816 85.9885 421.54 85.9885 425.358 85.5038V55.8255C422.368 55.6283 420.989 55.5494 419.423 55.5494Z" fill="white"/>
</g>
<mask id="mask1_5_1559" style="mask-type:luminance" maskUnits="userSpaceOnUse" x="70" y="0" width="77" height="93">
<path d="M70.6445 0.045166H146.941V93.0001H70.6445V0.045166Z" fill="#fff"/>
</mask>
<g mask="url(#mask1_5_1559)">
<path d="M110.239 0.045166L77.9743 88.4515C77.5754 89.54 76.8772 90.4945 75.9596 91.2058C75.0421 91.917 73.9423 92.3562 72.7861 92.4731V92.5153H106.894C109.564 92.5153 111.85 90.8216 112.701 88.4543L144.977 0.045166H110.239Z" fill="white"/>
</g>
<path d="M70.0032 91.1739C71.9813 91.1739 73.7135 90.1931 74.7732 88.708C74.8834 88.553 75.2705 88.0119 75.5446 87.2763L87.3791 54.8334L80.4559 35.8868C80.0526 34.9273 79.3995 34.0929 78.564 33.4699C77.7286 32.847 76.7414 32.4581 75.7046 32.3437C74.6678 32.2293 73.6191 32.3935 72.6674 32.8193C71.7156 33.245 70.8953 33.9168 70.2915 34.7651C70.1784 34.9201 69.7178 35.6106 69.52 36.1968L57.6855 68.6284L64.6399 87.6511C65.091 88.6967 65.8394 89.5875 66.7925 90.2136C67.7457 90.8397 68.8619 91.1735 70.0032 91.1739Z" fill="white"/>
<mask id="mask2_5_1559" style="mask-type:luminance" maskUnits="userSpaceOnUse" x="-3" y="28" width="77" height="96">
<path d="M-2.82617 28.1819H73.4706V123.428H-2.82617V28.1819Z" fill="#fff"/>
</mask>
<g mask="url(#mask2_5_1559)">
<path d="M72.5325 30.9551H38.0492C35.3788 30.9551 33.0928 32.6404 32.2309 35.0189L-0.0341797 123.425H34.7035L66.9713 35.0217C67.39 33.8716 68.1424 32.8717 69.1328 32.1495C70.1231 31.4273 71.3066 31.0154 72.5325 30.9664V30.9551Z" fill="white"/>
</g>
</g>
<defs>
<clipPath id="clip0_5_1559">
<rect width="438" height="124" fill="white"/>
</clipPath>
</defs>
</svg>
