<svg width="467" height="128" viewBox="0 0 467 128" fill="none" xmlns="http://www.w3.org/2000/svg">
<g clip-path="url(#clip0_0_3)">
<path d="M11.2939 39.0487H10.2267C9.4772 39.0487 8.8293 39.2223 8.29573 39.5603C7.48267 40.0719 6.68232 41.2049 5.90737 42.959C4.64967 45.7639 3.58254 49.1352 2.69325 53.0547C1.81668 56.9559 1.37203 59.4318 1.37203 60.4825V61.3231C1.37203 61.5149 1.29581 61.6794 1.16877 61.7981C1.02903 61.8986 0.876578 61.9443 0.711425 61.9443C0.508161 61.9443 0.355713 61.8986 0.254081 61.7981C0.0889282 61.6611 0 61.5058 0 61.3322V38.135H33.0813V61.3322C33.0813 61.5058 33.0178 61.652 32.878 61.7707C32.7383 61.8712 32.5731 61.9169 32.3699 61.9169C32.2047 61.9169 32.0523 61.8712 31.9125 61.7707C31.7728 61.652 31.7092 61.5058 31.7092 61.3322V59.9069C31.7092 58.5182 31.2138 55.9326 30.2356 52.1502C29.2828 48.3403 28.1775 45.1517 26.9325 42.5662C26.1195 40.9034 25.4335 39.9075 24.8999 39.5603C24.3917 39.2223 23.8963 39.0487 23.4262 39.0487H21.8001V92.2221H25.7638C26.1322 92.3957 26.3227 92.551 26.3227 92.6972C26.3227 92.8434 26.1449 92.9987 25.7638 93.1723H6.87288C6.70773 93.1723 6.56798 93.1358 6.46635 93.0627C6.36472 92.9622 6.3139 92.8434 6.3139 92.6972C6.3139 92.551 6.36472 92.4414 6.46635 92.3683C6.56798 92.2678 6.69502 92.2221 6.87288 92.2221H11.3066V39.0487H11.2939Z" fill="white"/>
<path d="M39.4333 92.213V39.0395H36.0794C35.6983 38.8751 35.5204 38.7106 35.5204 38.5644C35.5204 38.4457 35.711 38.2995 36.0794 38.1259H51.5402C51.9086 38.2995 52.0992 38.4457 52.0992 38.5644C52.0992 38.7106 51.9086 38.8659 51.5402 39.0395H49.9141V64.0731H56.3805V39.0395H54.2462C53.8778 38.8751 53.6872 38.7106 53.6872 38.5644C53.6872 38.4183 53.8778 38.2721 54.2462 38.1259H69.9738C70.3422 38.2995 70.5327 38.4457 70.5327 38.5644C70.5327 38.7106 70.3422 38.8659 69.9738 39.0395H66.9248V92.213H69.9738C70.1389 92.213 70.2914 92.2587 70.4311 92.3592C70.5581 92.4322 70.6344 92.5419 70.6344 92.6881C70.6344 92.8342 70.5581 92.953 70.4311 93.0535C70.2914 93.1175 70.1389 93.1632 69.9738 93.1632H54.7543C54.5892 93.1632 54.424 93.1175 54.297 93.0535C54.1954 92.953 54.1445 92.8342 54.1445 92.6881C54.1445 92.5327 54.1954 92.4322 54.297 92.3592C54.424 92.2587 54.5892 92.213 54.7543 92.213H56.3805V64.9502H49.9141V92.213H51.8959C52.0611 92.213 52.2008 92.2587 52.3025 92.3592C52.4295 92.4322 52.5057 92.5419 52.5057 92.6881C52.5057 92.8342 52.4295 92.953 52.3025 93.0535C52.2008 93.1175 52.0611 93.1632 51.8959 93.1632H36.0794C35.6983 92.9896 35.5204 92.8342 35.5204 92.6881C35.5204 92.5327 35.711 92.3866 36.0794 92.213H39.4333Z" fill="white"/>
<path d="M76.275 39.0487H73.0227C72.6797 38.8751 72.5146 38.738 72.5146 38.6101C72.5146 38.4457 72.6797 38.2812 73.0227 38.135H101.924V58.5182C101.721 58.7649 101.518 58.8836 101.315 58.8836C101.111 58.8836 100.959 58.8471 100.857 58.774C100.794 58.6735 100.73 58.3172 100.705 57.7051C100.463 53.6577 99.5869 49.8935 98.0624 46.3943C96.5379 42.9042 95.0642 40.7024 93.6287 39.7704C92.8791 39.2862 91.6341 39.0395 89.8683 39.0395H86.705V64.804C88.636 64.6578 90.2113 63.9269 91.4436 62.6113C93.0697 60.8297 93.8828 58.0979 93.8828 54.416V51.5654C93.8828 51.4467 93.9336 51.3462 94.0352 51.2731C94.1622 51.1817 94.3274 51.1269 94.4925 51.1269C94.6577 51.1269 94.7974 51.1817 94.8991 51.2731C95.0007 51.3462 95.0515 51.4467 95.0515 51.5654V78.7552C95.0515 78.8739 95.0007 78.9927 94.8991 79.0841C94.7974 79.1572 94.6577 79.1937 94.4925 79.1937C94.3274 79.1937 94.1749 79.1572 94.0352 79.0841C93.9336 78.9927 93.8828 78.8739 93.8828 78.7552V76.1239C93.8828 72.5151 92.9681 69.6462 91.1387 67.5266C90.0588 66.3024 88.9155 65.6994 87.734 65.6902C87.4291 65.6902 87.1877 65.7633 87.0226 65.9095C86.8193 66.0831 86.7177 66.348 86.7177 66.7135V92.2221H88.3438C89.7412 92.2221 91.1133 91.8567 92.4726 91.1258C93.8319 90.3674 95.1023 89.0792 96.2838 87.2428C97.4653 85.3881 98.3927 83.3781 99.0406 81.2037C100.095 77.6862 100.616 74.9453 100.616 72.9719V70.5599C100.845 70.2949 101.073 70.1579 101.277 70.1579C101.48 70.1579 101.632 70.1944 101.734 70.2675C101.861 70.3406 101.937 70.4411 101.937 70.5599V93.1723H73.0227C72.7814 93.1723 72.6035 93.1266 72.4638 93.0261C72.324 92.9256 72.2605 92.816 72.2605 92.6972C72.2605 92.551 72.324 92.4414 72.4638 92.3683C72.6035 92.2678 72.7814 92.2221 73.0227 92.2221H76.275V39.0487Z" fill="white"/>
<path fill-rule="evenodd" clip-rule="evenodd" d="M127.726 0.849678H140.811L161.798 124.391H167.096C167.96 124.793 168.392 125.159 168.392 125.497C168.392 125.835 167.96 126.209 167.096 126.602H131.614C131.22 126.602 130.902 126.511 130.674 126.346C130.445 126.118 130.318 125.835 130.318 125.497C130.318 125.159 130.432 124.903 130.674 124.738C130.915 124.51 131.22 124.4 131.614 124.391H137.28L134.218 100.317H112.875L110.284 113.967C110.195 114.707 110.169 115.465 110.169 116.26C110.169 118.745 110.792 120.645 112.062 121.933C113.396 123.185 115.2 123.943 117.474 124.227L119.367 124.656C119.685 124.885 119.837 125.159 119.837 125.506C119.837 125.844 119.672 126.127 119.367 126.355C119.126 126.52 118.821 126.611 118.427 126.611H98.2529C97.8591 126.611 97.5034 126.52 97.1985 126.355C96.9571 126.127 96.8428 125.844 96.8428 125.506C96.8428 125.168 96.9571 124.885 97.1985 124.656L98.6087 124.309C100.883 124.09 102.661 123.35 103.919 122.107C105.812 120.124 107.133 116.854 107.933 112.267L127.726 0.849678ZM124.779 32.4797L113.218 98.1059H133.85L124.779 32.4797Z" fill="white"/>
<path d="M5.43732 99.5038H385.478" stroke="white" stroke-width="0.98" stroke-miterlimit="3.8637"/>
<path d="M385.478 99.1749V101.413C385.478 110.97 383.357 117.722 379.114 121.678C374.947 125.634 369.725 127.607 363.437 127.607C357.542 127.607 353.223 126.456 350.466 124.135C346.706 121.029 344.813 116.616 344.813 110.906V37.8153H339.274C338.562 37.8153 338.016 37.7056 337.622 37.4772C337.228 37.258 337.025 36.9747 337.025 36.6367C337.025 36.2438 337.381 35.8144 338.092 35.3667C344.698 31.6939 349.488 28.0485 352.473 24.4305C355.459 20.7577 358.101 16.4911 360.362 11.6305C362.014 8.1222 362.878 5.69193 362.954 4.33976L363.183 0.438544C363.424 0.155317 363.78 0.0182724 364.25 0.0182724C364.72 0.0182724 365.076 0.100499 365.317 0.27409C365.622 0.438544 365.774 0.666952 365.787 0.950178V35.6317H383.357C383.979 35.6317 384.449 35.7505 384.767 35.9697C385.161 36.1981 385.351 36.454 385.351 36.7372C385.351 37.0752 385.199 37.331 384.881 37.4955C384.487 37.7239 383.979 37.8335 383.344 37.8335H365.774V116.781C365.774 119.211 366.257 120.874 367.184 121.778C367.807 122.454 368.76 122.801 370.017 122.801C372.698 122.801 375.048 121.705 377.094 119.494C380.155 116.214 381.692 111.189 381.692 104.401C381.692 104.401 381.692 99.2023 381.769 99.2023H385.478V99.1749Z" fill="white"/>
<path d="M177.551 99.5677C178.923 105.863 180.969 111.399 183.675 116.168C186.66 121.486 190.192 124.144 194.283 124.144C196.328 124.144 198.17 123.441 199.822 122.025C201.473 120.554 202.299 118.471 202.299 115.748C202.299 112.642 201.346 108.859 199.466 104.392C197.662 99.8692 193.762 92.9165 187.791 83.5335C181.896 74.0956 178.085 67.2799 176.357 63.0955C174.706 58.9202 173.88 55.2383 173.88 52.0771C173.88 46.8785 175.836 42.6667 179.775 39.4415C183.789 36.2164 188.413 34.6084 193.686 34.6084C198.399 34.6084 202.96 36.1616 207.355 39.2771C208.537 38.7106 210.302 37.6051 212.665 35.9697C213.999 35.1201 214.901 34.6998 215.384 34.6998C215.702 34.6998 215.968 34.7546 216.21 34.8734C216.438 35.1018 216.566 35.3576 216.566 35.6408V71.4278C216.566 71.8207 216.4 72.1313 216.095 72.3597C215.778 72.5881 215.422 72.6978 215.041 72.6978C214.571 72.6978 214.215 72.5516 213.974 72.2684C213.733 71.9943 213.542 71.1446 213.39 69.7285C212.36 59.2765 210.163 50.7889 206.783 44.2838C204.344 39.7613 201.168 37.5046 197.23 37.5046C195.019 37.5046 193.177 38.0985 191.691 39.2862C190.192 40.4739 189.442 42.0819 189.442 44.1193C189.442 49.2631 194.118 58.5639 203.468 72.0126C209.756 80.9479 214.037 88.0651 216.311 93.3733C218.585 98.6906 219.729 103.378 219.729 107.452C219.729 113.619 217.531 118.535 213.123 122.208C208.727 125.826 203.607 127.635 197.789 127.635C194.804 127.635 192.161 127.15 189.887 126.191C187.689 125.168 185.377 123.423 182.925 120.928C181.439 121.778 179.622 123.249 177.501 125.332C175.925 126.858 174.757 127.625 173.969 127.625C173.651 127.625 173.385 127.543 173.143 127.37C172.914 127.196 172.787 126.949 172.787 126.611C172.787 126.611 172.787 99.4307 172.864 99.4307L177.551 99.5677Z" fill="white"/>
<path fill-rule="evenodd" clip-rule="evenodd" d="M225.789 99.1109L225.776 99.3393H230.299C231.683 105.899 233.767 111.637 236.562 116.561C239.547 121.879 243.079 124.528 247.17 124.528C249.215 124.528 251.057 123.825 252.708 122.409C254.36 120.947 255.186 118.845 255.186 116.141C255.186 113.035 254.246 109.243 252.353 104.775C250.549 100.262 246.649 93.3093 240.678 83.9172C234.783 74.4794 230.972 67.6728 229.244 63.4884C227.593 59.3039 226.767 55.6311 226.767 52.4608C226.767 47.2622 228.723 43.0504 232.662 39.8253C236.676 36.6093 241.3 34.9921 246.572 34.9921C251.286 34.9921 255.846 36.5453 260.255 39.6517C261.436 39.0852 263.202 37.9889 265.552 36.3443C266.886 35.4946 267.788 35.0652 268.258 35.0652C268.576 35.0652 268.843 35.1292 269.084 35.2388C269.325 35.4672 269.44 35.7231 269.44 35.9971V71.7841C269.44 72.177 269.275 72.4876 268.97 72.7161C268.652 72.9445 268.296 73.0541 267.915 73.0541C267.432 73.0541 267.089 72.9171 266.848 72.6338C266.619 72.3506 266.416 71.5009 266.264 70.0848C265.235 59.6328 263.037 51.1543 259.658 44.6492C257.218 40.1268 254.042 37.8701 250.117 37.861C247.906 37.861 246.064 38.4548 244.578 39.6425C243.079 40.8303 242.342 42.4474 242.342 44.4757C242.342 49.6194 247.017 58.9202 256.367 72.378C262.656 81.3042 266.937 88.4305 269.211 93.7388C271.485 99.0561 272.628 103.752 272.628 107.818C272.628 113.985 270.431 118.9 266.035 122.573C261.627 126.191 256.52 127.991 250.701 127.991C247.716 127.991 245.073 127.516 242.799 126.556C240.602 125.533 238.277 123.788 235.838 121.294C234.338 122.144 232.534 123.615 230.413 125.707C228.838 127.233 227.656 127.991 226.868 127.991C226.551 127.991 226.284 127.909 226.043 127.744C225.814 127.571 225.687 127.315 225.687 126.977C225.712 126.986 225.725 101.779 225.789 99.1109Z" fill="white"/>
<path fill-rule="evenodd" clip-rule="evenodd" d="M301.746 42.9864V79.1115H314.005V42.9864C314.005 40.6749 313.383 38.9208 312.125 37.7239C311.261 36.8742 309.953 36.454 308.225 36.454C306.497 36.454 304.96 36.993 303.626 38.062C302.369 39.1492 301.746 40.7846 301.746 42.9864ZM334.497 81.6697H301.251V113.208C301.251 118.124 302.038 121.376 303.614 122.957C304.782 124.144 306.713 124.738 309.381 124.738C313.777 124.738 317.715 122.957 321.17 119.394C326.062 114.286 329.009 107.599 330.101 99.3211L333.722 99.4124C332.782 106.274 330.622 112.496 326.951 117.612C322.072 124.455 315.466 127.872 307.145 127.872C299.37 127.872 292.917 125.241 287.81 119.987C282.703 114.67 280.149 103.204 280.149 85.5617V73.1089C280.149 59.5963 283.605 49.3362 290.528 42.3286C295.47 37.3585 301.454 34.8734 308.441 34.8642C316.775 34.8642 323.178 38.062 327.662 44.4483C332.223 50.8345 334.497 58.6096 334.497 67.7642V81.6697Z" fill="white"/>
<path fill-rule="evenodd" clip-rule="evenodd" d="M423.908 46.038V46.5679L424.365 46.6592L425.089 46.3212C425.089 46.3212 425.89 46.038 426.157 45.8918C426.423 45.7456 427.414 45.5081 427.745 45.3162C428.075 45.1243 428.875 45.2248 429.142 45.3619C429.409 45.5081 429.815 45.5994 430.146 45.5537C430.476 45.5081 430.412 45.0238 430.412 45.0238V42.356C430.412 42.356 429.676 42.5022 429.421 42.5479C429.155 42.5936 428.824 42.8859 428.621 43.0687C428.418 43.2605 427.757 43.361 427.097 43.4981C426.436 43.6443 425.039 43.6443 424.442 43.7356C423.844 43.827 423.908 44.0737 423.908 44.0737V46.038ZM423.908 32.6258V33.7679L424.696 33.6217C424.696 33.6217 425.763 33.3842 426.22 33.238C426.69 33.0918 427.147 32.7172 428.011 32.7629C428.875 32.8086 429.078 33.0918 429.676 33.1923C430.273 33.2928 430.412 32.434 430.412 32.434V31.3376V28.9987C430.412 28.9987 430.336 28.1399 430.082 27.9024C429.815 27.6648 429.549 27.7105 428.951 27.8567C428.354 28.0029 427.554 28.1947 427.033 28.3866C426.5 28.5784 425.432 28.8617 424.518 29.2454C423.59 29.6291 423.921 30.1042 423.921 30.1042V32.6258H423.908ZM423.908 37.6417V40.9764C423.908 40.9764 424.759 40.8303 425.369 40.6932C425.966 40.547 426.169 40.5014 426.5 40.3552C426.83 40.209 427.363 40.1176 427.694 40.0719C428.024 40.0263 428.761 40.0719 429.028 40.0719C429.294 40.0719 429.294 40.4009 429.752 40.4009C430.222 40.4009 430.425 40.3095 430.425 40.3095V39.2131V36.8742V35.3028L429.828 35.0652L429.028 35.3941C429.028 35.3941 427.694 35.6774 427.236 35.9241C426.766 36.1616 425.775 36.2621 424.912 36.5453C424.035 36.8285 423.908 37.6417 423.908 37.6417ZM416.146 25.1889C416.146 25.1889 417.06 24.7869 417.569 24.7869C418.077 24.7869 418.826 24.8143 419.258 24.997C419.69 25.1797 420.3 25.463 420.986 25.5269C421.672 25.5909 422.18 25.5269 422.688 25.463C423.197 25.399 424.048 25.335 425 25.0975C425.941 24.8508 428.405 24.4214 429.091 24.1199C429.777 23.8184 430.107 23.5078 430.971 23.4438C431.823 23.389 432.763 23.3251 433.195 23.4438C433.614 23.5717 433.995 23.9281 435.189 24.4762C436.383 25.0335 437.463 25.8375 437.882 26.0203C438.314 26.203 438.822 26.7603 439.077 27.1897C439.331 27.6191 438.645 27.9937 438.302 28.3044C437.959 28.6059 437.959 28.6333 437.705 29.7296C437.45 30.8351 437.273 30.9265 437.273 31.9772V45.4076C437.273 46.0837 437.018 47.1891 436.93 47.6734C436.841 48.1667 435.824 48.8337 435.392 49.1443C434.96 49.4458 433.766 49.6925 433.169 49.8844C432.572 50.0671 432.14 49.9483 431.721 49.8204C431.302 49.7016 431.124 48.7789 431.124 48.7789L430.959 47.6186L429.93 47.5546L427.02 48.9616L424.48 50.4417C424.48 50.4417 425.915 51.6477 425.839 52.0405C425.687 52.8263 424.873 53.2831 424.365 53.8313C423.844 54.3794 420.986 56.3346 420.3 56.764C419.627 57.1934 417.06 58.235 417.06 58.235C417.06 58.235 416.209 58.235 415.777 58.4177C415.345 58.6004 419.525 55.4758 420.3 54.2424C421.062 53.0181 421.583 52.3969 421.748 52.0954C421.913 51.7939 422.091 51.4832 422.002 51.3005C421.913 51.1178 421.329 50.9442 420.643 50.8254C419.957 50.6975 420.122 50.999 419.271 50.3869C418.42 49.7747 418.242 49.6286 418.242 47.7282V32.2878C418.242 32.2878 418.013 30.0768 417.188 29.1632C416.705 28.6333 416.781 28.5328 416.527 27.9206C416.26 27.3085 415.765 26.6415 415.854 26.1482C415.955 25.6457 416.146 25.1889 416.146 25.1889Z" fill="white"/>
<path d="M427.757 49.656C427.757 49.656 431.365 52.6527 431.886 53.4384C432.42 54.2241 433.271 55.1286 433.754 56.0879C434.236 57.0472 434.236 57.8056 435.088 58.0066C435.939 58.2076 436.701 57.9243 437.196 57.6594C437.679 57.3944 438.886 56.4351 438.886 56.4351C438.886 56.4351 439.623 55.6494 439.381 55.2108C439.14 54.7723 439.14 53.9592 438.657 53.6942C438.175 53.4384 437.959 53.2557 437.323 52.9085C436.675 52.5613 435.824 52.2964 434.973 51.8578C434.122 51.4193 433.182 51.2183 432.547 50.9533C431.899 50.6884 430.806 50.4325 430.806 50.4325L429.587 50.0854L427.757 49.656Z" fill="white"/>
<path fill-rule="evenodd" clip-rule="evenodd" d="M439.14 32.9182C439.14 32.9182 443.434 32.3061 445.009 31.9589C446.585 31.6117 449.659 30.826 449.659 30.826V25.3533C449.659 25.3533 449.659 23.6631 449.291 22.786C448.922 21.9089 447.957 19.2594 447.957 19.2594L452.009 20.4288L455.414 21.6531C455.414 21.6531 456.786 22.0003 457.04 22.786C457.281 23.5717 457.408 23.8641 457.281 24.7412C457.154 25.6183 457.04 28.7886 457.04 28.7886C457.04 28.7886 458.247 28.2678 458.971 28.0029C459.708 27.7379 459.784 27.8293 460.686 28.1764C461.575 28.5236 464.002 28.8799 464.485 29.3094C464.967 29.7479 465.539 30.0311 465.704 30.826C465.869 31.6117 465.577 32.0503 465.094 32.3061C464.612 32.571 464.37 32.7446 463.151 33.1832C461.931 33.6217 457.281 35.1383 457.281 35.1383V47.0156C457.281 47.0156 457.04 49.1717 457.65 51.7025C458.26 54.2333 458.501 55.9235 458.374 56.8006C458.247 57.6685 457.523 58.4908 456.913 59.0116C456.303 59.5415 454.69 60.1445 454.448 60.5008C454.207 60.848 452.416 61.7525 451.895 61.8438C451.374 61.9261 450.396 61.6428 450.154 61.2865C449.913 60.9393 449.786 60.3272 449.545 59.98C449.303 59.6328 449.303 59.1943 448.693 58.7557C448.084 58.3172 447.347 57.6777 447.347 57.6777L448.566 57.4127C448.566 57.4127 449.418 56.7092 449.659 56.362C449.9 56.0148 450.51 54.4982 450.51 53.8861V44.567C450.51 44.567 449.341 45.7913 447.842 46.6592C446.343 47.5363 445.136 48.1759 444.285 48.6144C443.434 49.053 442.176 49.4915 441.084 49.8387C439.991 50.1859 439.75 50.2772 438.416 50.4508C437.082 50.6244 435.697 50.0123 435.697 50.0123C435.697 50.0123 440.919 46.6592 441.439 46.3121C441.96 45.9649 444.145 43.9275 444.882 43.1418C445.606 42.356 447.474 40.5836 447.601 40.2273C447.728 39.8801 448.579 38.2173 448.579 38.2173C448.579 38.2173 448.134 38.3909 446.75 38.6558C445.378 38.9208 444.044 38.8294 443.561 38.738C443.078 38.6558 442.062 38.1533 441.821 37.7787C441.579 37.4041 440.855 36.4448 440.487 35.9149C440.118 35.3941 439.635 34.1699 439.635 34.1699L439.14 32.9182Z" fill="white"/>
<path d="M427.897 88.4031C427.999 88.0194 428.049 87.6996 427.999 87.453C427.948 87.2063 426.779 86.5759 426.588 86.4023C426.398 86.2287 425.229 85.4247 425.229 85.4247L424.251 84.7212L423.273 84.2644C423.273 84.2644 423.184 84.1913 422.587 84.3009C422.002 84.4106 421.024 84.9313 420.63 85.041C420.236 85.1506 419.169 85.845 419.169 85.845L418.001 86.5119L417.073 87.0053C417.073 87.0053 416.641 87.389 417.505 87.4986C418.382 87.6083 421.253 87.9555 421.253 87.9555L423.743 88.2387L424.861 88.3849L426.525 88.4854L427.592 88.5219C427.605 88.5128 427.795 88.796 427.897 88.4031Z" fill="white"/>
<path d="M426.042 91.0709C426.042 91.0709 423.222 92.8525 422.434 93.2454C421.647 93.6291 420.719 94.1225 420.186 94.4057C419.652 94.6889 419.144 95.0087 418.471 95.3193C417.797 95.63 417.302 95.7396 416.717 95.8401C416.133 95.9497 415.587 96.2238 415.256 96.2878C414.913 96.3609 414.863 96.5345 414.863 96.5345C414.863 96.5345 415.053 96.9547 415.104 97.2014C415.155 97.4481 415.498 97.9689 415.587 98.2886C415.688 98.6084 415.93 98.9556 416.171 99.4124C416.413 99.8692 416.222 99.9423 417.188 100.573C418.153 101.203 418.648 101.55 419.08 101.696C419.525 101.834 420.402 101.523 420.643 101.167C420.884 100.81 421.278 100.363 421.329 100.043C421.38 99.7231 421.621 98.8551 421.761 98.5353C421.913 98.2156 422.206 97.3111 422.396 97.1283C422.587 96.9547 423.362 95.9406 423.412 95.6939C423.463 95.4472 424.149 94.5702 424.289 94.3966C424.442 94.223 424.683 93.7296 424.975 93.3824C425.267 93.0261 425.61 92.6515 425.61 92.4779C425.61 92.3044 425.902 91.7105 425.902 91.7105L426.042 91.0709Z" fill="white"/>
<path fill-rule="evenodd" clip-rule="evenodd" d="M438.378 112.322C437.984 112.45 437.565 112.642 437.018 112.697C436.383 112.77 436.332 112.952 435.596 113.09C434.872 113.217 434.084 113.464 434.084 113.464L432.864 113.747L432.572 113.957C432.572 113.957 432.712 114.168 433.296 114.414C433.881 114.661 433.982 114.871 434.084 115.191C434.185 115.511 434.033 116.269 433.893 116.625C433.754 116.982 433.792 117.438 433.309 117.639C432.826 117.85 432.534 118.59 432 118.909C431.467 119.229 430.882 119.713 430.679 119.86C430.476 119.997 430.578 120.207 429.892 120.453C429.206 120.691 428.723 121.157 428.38 121.33L426.881 122.098C426.881 122.098 425.902 122.701 425.42 122.801L422.93 123.368C422.93 123.368 425.229 121.193 425.661 120.737C426.093 120.28 426.741 119.412 427.173 119.019C427.605 118.635 428.138 118.069 428.291 117.722C428.443 117.365 429.078 116.908 429.18 116.662C429.282 116.424 429.612 115.931 429.612 115.794C429.612 115.657 429.561 115.374 429.561 115.374C429.561 115.374 428.926 115.09 428.481 115.127C428.049 115.163 427.567 115.09 427.274 115.09C426.982 115.09 426.538 114.807 426.538 114.807C426.538 114.807 426.385 113.857 426.69 113.153C426.741 113.026 426.766 112.733 426.779 112.331L438.378 112.322ZM447.728 112.322V112.66C447.728 112.66 447.83 113.674 447.487 114.021C447.144 114.378 447.055 114.972 446.623 115.218C446.178 115.465 445.886 115.785 445.695 115.885C445.505 115.995 445.111 116.168 445.111 116.168C445.111 116.168 444.717 116.178 445.301 116.452C445.899 116.735 446.343 116.872 446.623 117.046C446.902 117.219 447.639 117.566 447.88 117.786C448.122 117.996 448.427 118.242 448.96 118.553C449.494 118.873 449.545 118.9 450.04 119.257C450.536 119.613 450.879 119.677 451.069 120.024C451.26 120.371 451.399 120.545 451.692 120.938C451.997 121.321 452.187 121.568 452.276 121.815C452.378 122.061 452.174 122.692 452.085 122.975C451.997 123.258 451.704 123.816 451.361 123.916C451.018 124.026 450.726 124.336 450.383 124.473C450.04 124.61 450.332 124.857 449.697 124.894C449.062 124.93 449.151 124.93 448.821 124.93C448.478 124.93 448.681 124.857 448.185 124.784C447.69 124.711 447.105 124.117 446.966 123.943C446.826 123.77 446.394 123.386 446.191 123.103C446 122.82 445.708 122.473 445.174 121.979C444.641 121.495 444.933 121.285 444.488 120.965C444.057 120.645 444.298 120.654 443.459 119.951C442.634 119.247 442.824 119.32 442.583 118.864C442.341 118.407 441.948 118.014 441.757 117.813C441.567 117.603 441.516 117.356 441.173 117.109C440.83 116.872 440.741 116.698 440.449 116.415C440.144 116.132 440.347 115.922 439.953 115.748C439.559 115.575 439.267 115.191 439.267 115.191C439.267 115.191 439.61 115.017 440.144 115.118L441.274 115.328L441.91 115.428V112.322H447.728Z" fill="white"/>
<path fill-rule="evenodd" clip-rule="evenodd" d="M426.766 112.322C426.817 110.477 426.525 106.356 426.487 105.716C426.436 104.949 426.144 101.441 426.245 101.121C426.347 100.801 426.639 98.8094 426.83 98.4622C427.033 98.115 427.516 97.7587 427.999 97.6491C428.481 97.5395 429.663 97.5121 429.955 97.5395C430.247 97.576 431.225 97.3293 431.911 97.1923C432.597 97.0552 433.995 96.772 434.49 96.5253C434.973 96.2787 435.761 96.2878 436.091 95.7944C436.434 95.3011 436.917 94.36 437.158 93.6565C437.4 92.953 437.552 92.6058 437.692 91.7653C437.844 90.9248 437.743 90.4954 437.946 90.1116C438.136 89.7279 437.997 89.4081 437.997 89.4081C437.997 89.4081 437.666 89.0884 437.133 89.2345C436.587 89.3716 436.891 89.8284 436.155 90.0385C435.418 90.2487 434.884 90.7694 434.351 90.742C433.817 90.7055 433.08 90.3583 433.08 90.0751C433.08 89.7919 433.131 87.8641 433.423 87.4164C433.715 86.9596 434.109 85.9089 434.351 85.4886C434.592 85.0684 434.986 84.1182 435.227 83.6614C435.469 83.2046 435.964 82.6472 436.155 82.163C436.345 81.6697 436.459 80.9296 436.841 80.8657C437.222 80.7926 437.12 80.7652 438.238 81.0027C439.356 81.2494 439.991 81.3956 440.436 81.423C440.881 81.4595 442.189 81.6697 442.38 81.7062C442.57 81.7427 442.913 81.8432 443.155 82.2635C443.396 82.6929 443.688 83.2502 443.688 83.5609C443.688 83.8806 443.637 84.3009 443.637 84.3009C443.637 84.3009 444.666 84.1273 445.047 83.9811C445.441 83.8441 446.458 83.5609 447.093 83.2411C447.728 82.9305 448.262 82.5011 448.808 82.4371C449.341 82.3732 450.218 82.3732 450.713 82.5467C451.196 82.7203 452.365 82.9305 453 82.9305C453.635 82.9305 454.423 82.9944 455.046 83.2777C455.681 83.5609 455.732 83.6614 455.732 84.1547C455.732 84.6481 455.643 85.3059 455.096 85.6257C454.563 85.9455 454.029 86.4297 453.33 86.6033C452.644 86.7769 451.73 87.727 451.145 87.7636C450.561 87.8001 449.824 88.0468 449.138 88.257L447.283 88.8234C446.94 88.9239 446.762 88.8874 446.559 89.134C446.369 89.3807 445.378 89.3076 446.801 89.801C448.211 90.2944 448.897 90.7786 449.672 91.1349C450.459 91.4912 451.171 91.6557 451.958 92.012C452.746 92.3592 453.864 93.0992 454.639 93.3733C455.414 93.6565 456.1 94.0128 456.926 94.2869C457.751 94.5702 458.831 95.0909 459.759 95.2006C460.686 95.3011 461.652 95.8767 461.944 95.9406C462.236 96.0046 462.871 96.2147 463.456 96.4248C464.04 96.635 465.209 97.2288 465.793 97.3385C466.377 97.4481 467.114 97.6856 466.962 97.8592C466.822 98.0328 466.047 98.3161 465.171 98.4896C464.294 98.6632 462.388 99.2662 461.842 99.3667C461.309 99.4672 461.118 99.7139 460.089 99.7139C459.06 99.7139 458.869 99.924 458.183 99.851C457.497 99.7779 456.481 99.8418 455.986 99.6043C455.49 99.3667 454.182 99.0104 453.546 98.5901C452.911 98.1699 450.917 97.0826 450.675 96.836C450.434 96.5893 448.325 95.3376 448.325 95.3376C448.325 95.3376 446.902 94.3874 446.674 94.2413C446.432 94.1042 446.191 93.7479 445.416 93.2271C444.641 92.7063 444.006 92.1764 443.663 91.9298L442.888 91.3724C442.888 91.3724 442.443 91.3816 442.354 92.0394C442.253 92.7063 441.579 93.3642 441.579 93.3642C441.579 93.3642 441.236 94.4514 441.096 94.5976C440.944 94.7346 440.753 95.3742 440.753 95.3742C440.753 95.3742 440.804 95.4838 441.44 95.4107C442.062 95.3467 442.608 95.2645 443.282 95.4472C443.968 95.6208 444.603 95.6208 445.187 96.0046C445.772 96.3974 446 96.571 446.839 96.8451C447.664 97.1283 447.423 96.9456 447.614 97.5486C447.817 98.1516 447.766 98.3617 447.715 98.846C447.664 99.2936 447.703 110.248 447.715 112.322H441.871V112.03C441.871 112.03 441.871 111.5 441.63 111.536C441.389 111.573 441.236 111.71 440.55 111.856C439.864 111.993 438.988 112.167 438.556 112.276C438.492 112.295 438.429 112.313 438.365 112.331L426.766 112.322ZM431.67 102.117L431.746 102.327C431.746 102.327 432.039 102.217 432.572 102.172C433.093 102.117 433.322 101.907 434.135 101.797C434.948 101.687 434.808 101.687 435.405 101.368C436.002 101.048 436.155 101.103 436.523 100.938C436.891 100.783 437.489 100.783 437.87 100.728C438.238 100.673 438.759 101.048 439.216 101.212C439.661 101.368 440.029 101.861 440.029 101.861L439.14 102.875C439.14 102.875 437.654 103.624 436.904 103.898C436.155 104.163 435.418 104.328 434.96 104.328C434.516 104.328 433.474 103.953 432.953 103.688C432.432 103.423 431.911 103.368 431.911 103.368C431.911 103.368 431.454 107.069 431.911 107.014C432.356 106.959 432.953 106.849 433.55 106.639C434.147 106.42 434.3 106.31 435.113 106.045C435.939 105.78 436.155 105.616 436.688 105.506C437.209 105.397 437.73 105.726 438.479 105.881C439.229 106.036 439.674 106.201 439.674 106.201C439.674 106.201 439.597 106.411 439.305 106.74C439 107.06 437.666 107.818 436.612 108.357C435.57 108.887 435.494 108.567 434.592 108.622C433.703 108.677 433.245 108.457 432.509 108.357C431.759 108.247 431.911 108.567 431.911 108.567C431.911 108.567 431.162 111.518 431.911 111.518C432.229 111.518 432.343 111.527 432.458 111.518C432.61 111.5 432.75 111.445 433.411 111.253C434.529 110.933 434.236 110.988 435.202 110.559C436.167 110.129 436.396 110.23 436.701 110.02C436.993 109.81 437.895 109.271 438.632 109.106C439.381 108.942 440.195 108.887 441.236 108.942C441.503 108.951 441.668 108.969 441.757 108.978C442.049 109.015 441.757 109.042 441.757 108.978V100.883C441.757 100.518 441.465 99.385 441.465 99.385L441.096 99.0104C441.096 99.0104 440.499 99.1201 439.305 99.2754C438.111 99.4307 437.362 99.65 436.472 99.8144C435.57 99.9697 434.605 100.079 433.487 100.299C432.369 100.518 431.695 100.618 431.695 100.618V102.117H431.67ZM441.516 86.6581L441.592 86.9779C441.592 86.9779 442.189 87.1423 442.481 87.2976C442.786 87.4621 443.231 87.8367 444.12 87.8915C445.009 87.9463 444.565 88.3757 445.162 88.5402C445.759 88.6955 445.759 88.4305 446.28 88.1656C446.813 87.8915 446.508 87.791 446.585 87.4164C446.661 87.0418 446.813 87.0418 446.877 86.7677C446.953 86.5028 447.182 85.9637 447.55 85.5343C447.919 85.1049 447.398 84.9953 447.398 84.9953C447.398 84.9953 447.029 84.8856 446.432 85.0501C445.835 85.2146 445.53 85.3242 444.793 85.5891C444.044 85.8541 443.37 86.1282 442.85 86.2835C442.341 86.4388 441.516 86.6581 441.516 86.6581Z" fill="white"/>
</g>
<defs>
<clipPath id="clip0_0_3">
<rect width="467" height="128" fill="white"/>
</clipPath>
</defs>
</svg>
