<svg width="491" height="72" viewBox="0 0 491 72" fill="none" xmlns="http://www.w3.org/2000/svg">
<g clip-path="url(#clip0_5_1733)">
<path d="M-0.00585938 17.5391H16.1511L25.559 40.5516L35.0891 17.5391H50.8206L27.1325 72.0172H11.3014L17.7856 57.5813L-0.00585938 17.5391Z" fill="white"/>
<path d="M67.2082 16.6228C55.0687 16.6228 47.3945 27.032 47.3945 37.3978C47.3945 49.0625 55.8084 58.3104 66.9779 58.3104C75.31 58.3104 78.4516 53.4569 78.4516 53.4569V57.2377H92.5435V17.5392H78.4516V21.1481C78.4516 21.1481 74.9466 16.6228 67.2082 16.6228ZM70.2057 29.3804C75.8069 29.3804 78.6974 33.6179 78.6974 37.4414C78.6974 41.5587 75.6007 45.5992 70.2057 45.5992C65.7343 45.5992 61.6936 42.1056 61.6936 37.6167C61.6936 33.0642 64.9438 29.3804 70.2057 29.3804Z" fill="white"/>
<path d="M97.3975 57.2375V0.00976562H112.137V21.2856C112.137 21.2856 115.638 16.6278 122.97 16.6278C131.939 16.6278 137.194 23.0169 137.194 32.1467V57.2375H122.562V35.5838C122.562 32.4941 121.023 29.5093 117.536 29.5093C113.987 29.5093 112.137 32.5393 112.137 35.5838V57.2375H97.3975Z" fill="white"/>
<path d="M162.323 16.6277C148.422 16.6277 140.144 26.7346 140.144 37.5631C140.144 49.8862 150.166 58.3106 162.376 58.3106C174.21 58.3106 184.566 50.2685 184.566 37.7699C184.566 24.0941 173.723 16.6277 162.323 16.6277ZM162.456 29.4974C167.367 29.4974 170.765 33.4078 170.765 37.5779C170.765 41.1346 167.599 45.5215 162.456 45.5215C157.744 45.5215 154.208 41.9078 154.208 37.539C154.208 33.3304 157.148 29.4974 162.456 29.4974Z" fill="white"/>
<path d="M209.12 16.6277C195.218 16.6277 186.94 26.7346 186.94 37.5631C186.94 49.8862 196.963 58.3106 209.173 58.3106C221.007 58.3106 231.363 50.2685 231.363 37.7699C231.363 24.0941 220.52 16.6277 209.12 16.6277ZM209.253 29.4974C214.164 29.4974 217.561 33.4078 217.561 37.5779C217.561 41.1346 214.395 45.5215 209.253 45.5215C204.541 45.5215 201.005 41.9078 201.005 37.539C201.005 33.3304 203.945 29.4974 209.253 29.4974Z" fill="white"/>
<path d="M242.993 58.0804C248.399 58.0804 252.781 53.8908 252.781 48.7227C252.781 43.5546 248.399 39.365 242.993 39.365C237.588 39.365 233.206 43.5546 233.206 48.7227C233.206 53.8908 237.588 58.0804 242.993 58.0804Z" fill="white"/>
<path d="M255.997 35.9275H238.377L254.015 0.00976562H271.569L255.997 35.9275Z" fill="white"/>
<path d="M300.861 9.50275C298.363 10.4072 297.048 11.1825 295.032 13.0776L293.366 14.5851V12.3454V10.1057H284.819H276.271V32.9332V55.7607H284.819H293.366V42.7103C293.366 35.4744 293.541 29.0138 293.804 28.1524C295.075 23.63 301.519 22.467 303.973 26.3865C304.981 27.937 304.981 28.1955 305.113 41.8489L305.244 55.7607H313.485C321.681 55.7607 321.769 55.7607 322.032 54.8132C322.426 53.2626 322.339 27.937 321.857 23.7592C321.199 17.2986 318.175 12.6469 313.178 10.235C310.066 8.72747 303.973 8.38291 300.861 9.50275Z" fill="white"/>
<path d="M345.088 9.50268C337.066 11.5701 330.798 17.2554 328.081 24.922C326.065 30.6074 326.678 39.4799 329.483 44.9068C330.886 47.6634 334.261 51.2813 337.066 53.0041C345.833 58.5172 359.464 58.1726 368.012 52.1858C370.422 50.463 373.578 46.8881 373.578 45.8113C373.578 45.639 372.526 45.0791 371.299 44.6484C370.028 44.1746 367.135 43.0979 364.9 42.2365C362.62 41.375 360.429 40.6859 359.99 40.6859C359.552 40.6859 358.588 41.1597 357.886 41.7627C357.185 42.3226 356.046 43.0117 355.344 43.2702C353.547 43.9593 349.295 43.8731 347.805 43.0979C345.614 41.978 342.721 38.1447 343.466 37.3695C343.597 37.2402 350.654 37.111 359.201 37.111C367.705 37.068 374.937 36.8526 375.288 36.6373C376.033 36.1635 375.682 29.6598 374.674 25.8696C372.526 17.7292 366.258 11.6131 357.974 9.50268C354.643 8.64126 348.331 8.64126 345.088 9.50268ZM355.169 22.2516C357.098 23.2423 358.369 24.6205 358.851 26.3003C359.114 27.0756 358.895 27.2478 357.492 27.5063C355.344 27.8508 349.865 27.8508 346.446 27.5063C343.334 27.1617 343.027 26.5587 344.956 24.276C347.454 21.3902 351.706 20.5288 355.169 22.2516Z" fill="white"/>
<path d="M464.003 9.63189C456.815 11.5701 453.089 14.8004 451.336 20.7011C449.451 27.1186 452.431 33.3639 458.831 36.2066C460.014 36.7665 463.872 37.9725 467.334 38.8769C474.084 40.729 474.961 41.2458 473.953 42.8394C473.646 43.3563 472.594 43.4855 469.044 43.4424C464.924 43.4424 464.135 43.2702 460.146 41.8057C457.735 40.9013 455.456 40.0829 455.061 39.9968C454.579 39.8245 453.703 41.1597 451.686 45.2945C450.196 48.3525 448.969 51.066 448.969 51.3244C448.969 52.2289 456.595 55.1577 461.899 56.2345C465.362 56.9667 473.997 56.9236 477.021 56.2345C485.305 54.2532 490.302 49.3001 490.916 42.4518C491.31 38.4893 490.171 35.3451 487.365 32.6747C484.516 29.9613 481.93 28.7553 473.909 26.3433C468.956 24.8789 467.553 24.319 467.422 23.673C466.94 21.1318 472.419 21.0456 479.826 23.4576C482.675 24.4052 485.13 25.1374 485.218 25.0512C485.437 24.8359 490.171 13.982 490.171 13.7236C490.171 13.2929 485.481 11.4409 481.623 10.321C476.188 8.72741 468.562 8.42591 464.003 9.63189Z" fill="white"/>
<path d="M374.455 10.4934C374.455 11.2256 389.796 55.0716 390.147 55.4162C390.366 55.6315 393.653 55.7177 397.511 55.6746L404.48 55.5454L408.425 43.7871C410.573 37.3695 412.457 32.0718 412.589 32.0718C412.72 32.0718 414.605 37.3695 416.797 43.8301L420.785 55.5454L427.974 55.6746L435.206 55.7607L436.652 51.7982C437.441 49.6016 440.904 39.6523 444.367 29.7029C447.83 19.7536 450.766 11.2686 450.942 10.8379C451.248 10.1488 450.679 10.1057 442.657 10.1057C437.924 10.1057 434.066 10.1488 434.066 10.2349C434.066 11.3548 426.922 33.6224 426.746 33.1055C426.703 32.8902 424.993 27.6786 422.933 21.5195L419.251 10.3211L412.852 10.1919L406.496 10.0627L402.683 21.5626C400.623 27.8509 398.782 32.8471 398.563 32.6748C398.343 32.3733 393.04 15.6619 391.681 10.8379C391.462 10.1919 390.673 10.1057 382.958 10.1057C377.918 10.1057 374.455 10.278 374.455 10.4934Z" fill="white"/>
</g>
<defs>
<clipPath id="clip0_5_1733">
<rect width="491" height="72" fill="white"/>
</clipPath>
</defs>
</svg>
